<?xml version="1.0" encoding="UTF-8" standalone="no"?><!-- Generator: Gravit.io --><svg xmlns="http://www.w3.org/2000/svg" xmlns:xlink="http://www.w3.org/1999/xlink" style="isolation:isolate" viewBox="0 0 494.935 675.75" width="494.935pt" height="675.75pt"><defs><clipPath id="_clipPath_MqlLsntWCgsKA4fpTRN8v7jMweT7xoRv"><rect width="494.935" height="675.75"/></clipPath></defs><g clip-path="url(#_clipPath_MqlLsntWCgsKA4fpTRN8v7jMweT7xoRv)"><rect x="-10" y="-6" width="512" height="691" transform="matrix(1,0,0,1,0,0)" fill="rgb(235,235,235)"/><g style="mix-blend-mode:divide;opacity:0.13;"><path d=" M 215.202 254.233 L 222.784 244.96 C 222.784 244.96 214.494 226.766 212.336 216.687 C 210.176 206.613 212.517 188.614 213.595 183.935 C 214.677 179.255 216.835 170.979 223.492 168.999 C 230.15 167.018 239.688 173.317 243.468 176.917 C 247.248 180.516 247.788 179.077 248.866 177.637 C 249.948 176.196 254.985 156.761 260.385 140.925 C 260.631 140.202 260.921 139.489 261.232 138.777 C 260.311 137.985 253.365 131.99 250.384 128.369 C 247.192 124.489 251.299 121.98 252.668 117.189 C 253.99 112.564 262.123 96.47 272.95 85.711 L 272.891 85.535 C 266.36 56.191 296.112 48.345 324.409 48.005 C 348.174 47.716 350.955 62.347 351.238 67.043 C 355.074 67.472 357.757 67.932 358.417 68.195 C 360.699 69.108 369.807 70.726 368.891 70.954 C 368.749 70.989 368.272 70.943 367.584 70.848 C 380.05 73.208 387.016 76.498 388.87 77.115 C 389.183 77.219 389.434 77.598 389.636 78.195 C 389.754 78.284 389.889 78.415 390.05 78.623 C 390.387 79.055 390.433 81.811 390.328 85.509 C 390.383 95.149 388.87 109.625 388.87 109.625 C 385.429 107.506 381.784 105.775 378.039 104.355 C 385.98 108.074 393.451 113.449 398.596 119.33 C 407.411 129.407 412.631 156.402 412.631 174.937 C 412.631 193.474 407.233 218.488 406.514 224.966 C 405.791 231.446 406.873 230.366 409.214 229.466 C 411.551 228.565 417.493 222.268 419.651 219.748 C 421.811 217.227 423.79 219.568 424.87 222.988 C 425.95 226.405 426.671 243.501 425.051 258.081 C 423.431 272.657 416.003 279.43 414.438 283.841 C 412.874 288.248 410.741 289.104 408.324 294.08 C 407.775 295.21 407.448 296.177 407.256 297.009 C 407.337 297.004 407.383 297.028 407.383 297.087 C 407.383 297.239 407.274 297.507 407.097 297.847 C 406.795 300.09 407.614 301.048 407.614 301.048 C 410.599 303.752 412.589 316.693 413.301 324.228 C 414.013 331.762 411.738 339.305 411.028 341.295 C 410.316 343.287 408.892 348.405 407.614 351.819 C 406.333 355.229 404.768 359.64 403.206 366.18 C 401.641 372.719 396.807 378.269 394.104 381.394 C 391.402 384.523 391.689 385.803 385.288 392.771 C 378.89 399.737 376.897 399.169 374.052 400.168 C 371.208 401.163 364.242 404.434 364.242 404.434 L 363.957 399.881 C 362.962 395.047 358.696 390.64 358.696 390.64 C 358.696 390.64 352.013 391.347 351.018 391.778 C 350.021 392.205 352.721 405.712 352.721 405.712 C 333.953 417.658 312.48 410.546 312.48 410.546 L 310.488 397.891 L 300.537 397.95 L 298.172 410.004 C 289.425 408.587 262.005 394.405 262.005 394.405 L 266.733 385.185 C 262.952 383.532 254.443 377.622 254.443 377.622 L 247.351 385.185 C 229.151 366.985 211.422 336.491 211.422 336.491 L 213.549 332.946 L 209.294 332.946 C 202.677 317.582 200.31 286.378 200.31 286.378 L 197 283.782 L 206.694 251.398 L 215.202 254.233 Z " fill="rgb(0,0,0)"/><path d=" M 215.202 254.233 L 222.784 244.96 C 222.784 244.96 214.494 226.766 212.336 216.687 C 210.176 206.613 212.517 188.614 213.595 183.935 C 214.677 179.255 216.835 170.979 223.492 168.999 C 230.15 167.018 239.688 173.317 243.468 176.917 C 247.248 180.516 247.788 179.077 248.866 177.637 C 249.948 176.196 254.985 156.761 260.385 140.925 C 260.631 140.202 260.921 139.489 261.232 138.777 C 260.311 137.985 253.365 131.99 250.384 128.369 C 247.192 124.489 251.299 121.98 252.668 117.189 C 253.99 112.564 262.123 96.47 272.95 85.711 L 272.891 85.535 C 266.36 56.191 296.112 48.345 324.409 48.005 C 348.174 47.716 350.955 62.347 351.238 67.043 C 355.074 67.472 357.757 67.932 358.417 68.195 C 360.699 69.108 369.807 70.726 368.891 70.954 C 368.749 70.989 368.272 70.943 367.584 70.848 C 380.05 73.208 387.016 76.498 388.87 77.115 C 389.183 77.219 389.434 77.598 389.636 78.195 C 389.754 78.284 389.889 78.415 390.05 78.623 C 390.387 79.055 390.433 81.811 390.328 85.509 C 390.383 95.149 388.87 109.625 388.87 109.625 C 385.429 107.506 381.784 105.775 378.039 104.355 C 385.98 108.074 393.451 113.449 398.596 119.33 C 407.411 129.407 412.631 156.402 412.631 174.937 C 412.631 193.474 407.233 218.488 406.514 224.966 C 405.791 231.446 406.873 230.366 409.214 229.466 C 411.551 228.565 417.493 222.268 419.651 219.748 C 421.811 217.227 423.79 219.568 424.87 222.988 C 425.95 226.405 426.671 243.501 425.051 258.081 C 423.431 272.657 416.003 279.43 414.438 283.841 C 412.874 288.248 410.741 289.104 408.324 294.08 C 407.775 295.21 407.448 296.177 407.256 297.009 C 407.337 297.004 407.383 297.028 407.383 297.087 C 407.383 297.239 407.274 297.507 407.097 297.847 C 406.795 300.09 407.614 301.048 407.614 301.048 C 410.599 303.752 412.589 316.693 413.301 324.228 C 414.013 331.762 411.738 339.305 411.028 341.295 C 410.316 343.287 408.892 348.405 407.614 351.819 C 406.333 355.229 404.768 359.64 403.206 366.18 C 401.641 372.719 396.807 378.269 394.104 381.394 C 391.402 384.523 391.689 385.803 385.288 392.771 C 378.89 399.737 376.897 399.169 374.052 400.168 C 371.208 401.163 364.242 404.434 364.242 404.434 L 363.957 399.881 C 362.962 395.047 358.696 390.64 358.696 390.64 C 358.696 390.64 352.013 391.347 351.018 391.778 C 350.021 392.205 352.721 405.712 352.721 405.712 C 333.953 417.658 312.48 410.546 312.48 410.546 L 310.488 397.891 L 300.537 397.95 L 298.172 410.004 C 289.425 408.587 262.005 394.405 262.005 394.405 L 266.733 385.185 C 262.952 383.532 254.443 377.622 254.443 377.622 L 247.351 385.185 C 229.151 366.985 211.422 336.491 211.422 336.491 L 213.549 332.946 L 209.294 332.946 C 202.677 317.582 200.31 286.378 200.31 286.378 L 197 283.782 L 206.694 251.398 L 215.202 254.233 Z " fill="none" vector-effect="non-scaling-stroke" stroke-width="10" stroke="rgb(0,0,0)" stroke-linejoin="miter" stroke-linecap="round" stroke-miterlimit="3" style="mix-blend-mode:source-over;"/><path d=" M 222.783 244.96 L 215.201 254.232 L 206.695 251.397 L 197.001 283.781 L 200.311 286.378 C 200.311 286.378 202.676 317.582 209.293 332.946 L 213.55 332.946 L 211.422 336.492 C 211.422 336.492 229.15 366.985 247.351 385.185 L 254.442 377.621 C 254.442 377.621 262.953 383.533 266.734 385.185 L 262.004 394.405 C 262.004 394.405 289.425 408.587 298.173 410.004 L 300.537 397.95 L 310.489 397.891 L 312.479 410.545 C 312.479 410.545 333.953 417.658 352.722 405.712 C 352.722 405.712 350.023 392.206 351.019 391.777 C 352.014 391.348 358.696 390.64 358.696 390.64 C 358.696 390.64 362.964 395.047 363.958 399.881 L 364.241 404.434 C 364.241 404.434 371.209 401.162 374.054 400.167 C 376.898 399.169 378.889 399.737 385.288 392.77 C 391.688 385.803 391.403 384.523 394.105 381.394 C 396.807 378.269 401.642 372.719 403.205 366.18 C 404.768 359.639 406.334 355.229 407.614 351.819 C 408.893 348.405 410.315 343.287 411.027 341.295 C 411.739 339.305 414.012 331.762 413.3 324.228 C 412.59 316.692 410.598 303.751 407.614 301.05 C 407.614 301.05 405.905 299.058 408.324 294.082 C 410.743 289.104 412.873 288.247 414.439 283.841 C 416.002 279.432 423.43 272.656 425.05 258.081 C 426.67 243.501 425.949 226.405 424.869 222.987 C 423.789 219.568 421.81 217.227 419.65 219.748 C 417.492 222.268 411.551 228.565 409.213 229.465 C 406.874 230.366 405.792 231.446 406.513 224.966 C 407.233 218.49 412.631 193.473 412.631 174.937 C 412.631 156.402 407.412 129.406 398.595 119.33 C 389.778 109.25 374.122 100.614 360.983 99.354 C 347.846 98.093 327.689 96.114 307.536 103.672 C 287.377 111.232 265.784 125.088 260.384 140.925 C 254.984 156.76 249.947 176.196 248.865 177.637 C 247.787 179.077 247.247 180.516 243.469 176.917 C 239.689 173.317 230.149 167.018 223.493 168.999 C 216.834 170.979 214.676 179.255 213.594 183.935 C 212.516 188.614 210.177 206.612 212.337 216.687 C 214.495 226.765 222.783 244.96 222.783 244.96 Z " fill="rgb(255,255,255)"/><path d=" M 222.783 244.96 L 215.201 254.232 L 206.695 251.397 L 197.001 283.781 L 200.311 286.378 C 200.311 286.378 202.676 317.582 209.293 332.946 L 213.55 332.946 L 211.422 336.492 C 211.422 336.492 229.15 366.985 247.351 385.185 L 254.442 377.621 C 254.442 377.621 262.953 383.533 266.734 385.185 L 262.004 394.405 C 262.004 394.405 289.425 408.587 298.173 410.004 L 300.537 397.95 L 310.489 397.891 L 312.479 410.545 C 312.479 410.545 333.953 417.658 352.722 405.712 C 352.722 405.712 350.023 392.206 351.019 391.777 C 352.014 391.348 358.696 390.64 358.696 390.64 C 358.696 390.64 362.964 395.047 363.958 399.881 L 364.241 404.434 C 364.241 404.434 371.209 401.162 374.054 400.167 C 376.898 399.169 378.889 399.737 385.288 392.77 C 391.688 385.803 391.403 384.523 394.105 381.394 C 396.807 378.269 401.642 372.719 403.205 366.18 C 404.768 359.639 406.334 355.229 407.614 351.819 C 408.893 348.405 410.315 343.287 411.027 341.295 C 411.739 339.305 414.012 331.762 413.3 324.228 C 412.59 316.692 410.598 303.751 407.614 301.05 C 407.614 301.05 405.905 299.058 408.324 294.082 C 410.743 289.104 412.873 288.247 414.439 283.841 C 416.002 279.432 423.43 272.656 425.05 258.081 C 426.67 243.501 425.949 226.405 424.869 222.987 C 423.789 219.568 421.81 217.227 419.65 219.748 C 417.492 222.268 411.551 228.565 409.213 229.465 C 406.874 230.366 405.792 231.446 406.513 224.966 C 407.233 218.49 412.631 193.473 412.631 174.937 C 412.631 156.402 407.412 129.406 398.595 119.33 C 389.778 109.25 374.122 100.614 360.983 99.354 C 347.846 98.093 327.689 96.114 307.536 103.672 C 287.377 111.232 265.784 125.088 260.384 140.925 C 254.984 156.76 249.947 176.196 248.865 177.637 C 247.787 179.077 247.247 180.516 243.469 176.917 C 239.689 173.317 230.149 167.018 223.493 168.999 C 216.834 170.979 214.676 179.255 213.594 183.935 C 212.516 188.614 210.177 206.612 212.337 216.687 C 214.495 226.765 222.783 244.96 222.783 244.96 Z " fill="none" vector-effect="non-scaling-stroke" stroke-width="1.045" stroke="rgb(54,54,57)" stroke-linejoin="miter" stroke-linecap="butt" stroke-miterlimit="3" style="mix-blend-mode:source-over;"/><path d=" M 355.158 205.72 C 355.158 205.72 363.337 211.486 361.401 224.48 C 359.467 237.475 351.08 243.975 343.338 243.975 C 335.598 243.975 322.698 240.077 316.891 240.077 C 311.085 240.077 300.862 234.039 300.121 225.127 C 299.283 215.08 298.575 204.253 311.185 200.15 C 327.238 194.922 329.146 206.285 338.178 206.285 C 347.21 206.285 347.241 201.908 355.158 205.72 Z " fill="rgb(211,34,41)"/><path d=" M 351.257 68.475 C 351.257 68.475 352.705 47.662 324.408 48.004 C 296.113 48.344 266.36 56.191 272.892 85.536 L 274.706 90.995 C 274.706 90.995 296.836 74.275 323.321 74.617 C 349.805 74.959 352.705 74.617 352.705 74.617 L 351.257 68.475 Z " fill="rgb(211,34,41)"/><path d=" M 351.257 68.475 C 351.257 68.475 352.705 47.662 324.408 48.004 C 296.113 48.344 266.36 56.191 272.892 85.536 L 274.706 90.995 C 274.706 90.995 296.836 74.275 323.321 74.617 C 349.805 74.959 352.705 74.617 352.705 74.617 L 351.257 68.475 Z " fill="none" vector-effect="non-scaling-stroke" stroke-width="0.696" stroke="rgb(35,31,32)" stroke-linejoin="miter" stroke-linecap="butt" stroke-miterlimit="3" style="mix-blend-mode:source-over;"/><path d=" M 302.675 174.354 C 302.675 174.354 304.566 180.022 306.454 181.912 C 308.346 183.802 308.614 184.477 309.696 184.477 C 310.774 184.477 312.392 184.477 311.449 185.691 C 310.504 186.906 309.696 189.066 308.749 188.795 C 307.804 188.526 305.916 184.882 305.51 183.397 C 305.105 181.912 300.382 178.132 300.787 176.917 C 301.19 175.704 301.463 174.354 302.675 174.354 Z " fill="rgb(211,34,41)"/><path d=" M 277.569 176.648 C 277.569 176.648 278.516 176.783 280.271 175.703 C 282.026 174.623 283.104 174.893 283.378 175.433 C 283.644 175.973 284.589 177.323 285.129 177.323 C 285.671 177.323 288.099 176.648 287.156 179.886 C 286.211 183.126 286.749 184.206 286.749 184.206 C 286.749 184.206 284.184 182.856 282.699 181.911 C 281.216 180.966 280.676 179.886 279.461 180.291 C 278.246 180.696 276.896 179.346 276.896 178.401 C 276.896 177.458 276.221 177.458 277.569 176.648 Z " fill="rgb(211,34,41)"/><path d=" M 302.445 177.872 C 302.445 177.872 301.23 184.35 298.665 186.51 C 296.101 188.67 291.918 187.86 291.513 185.565 C 291.108 183.27 292.458 177.198 295.022 175.308 C 297.586 173.42 299.477 174.094 300.825 174.769 C 302.175 175.444 302.715 176.118 302.445 177.872 Z " fill="rgb(53,128,165)"/><path d=" M 378.835 190.678 C 378.835 190.678 381.759 200.636 376.673 204.315 C 371.586 207.996 369.419 204.964 370.612 198.689 C 371.802 192.413 373.966 189.918 374.942 189.489 C 375.917 189.055 378.297 189.275 378.835 190.678 Z " fill="rgb(53,128,165)"/><path d=" M 375.698 180.229 C 375.698 180.229 378.729 172.758 380.786 170.484 C 380.786 170.484 381.435 181.742 380.786 184.016 C 380.135 186.289 380.355 191.807 381.111 193.215 C 381.867 194.622 382.193 195.595 381.649 196.353 C 381.111 197.111 377.862 190.942 376.673 190.076 C 375.48 189.209 372.124 188.778 372.884 186.395 C 373.642 184.016 374.507 182.176 375.698 180.229 Z " fill="rgb(211,34,41)"/><path d=" M 420.633 237.756 C 420.633 237.756 426.203 252.349 423.512 263.1 C 420.823 273.855 414.49 278.079 412.376 281.922 C 410.266 285.759 404.694 290.56 402.198 293.439 C 399.703 296.32 397.782 302.082 392.596 300.351 C 387.415 298.626 386.838 289.985 382.035 297.472 C 377.237 304.963 377.042 312.259 378.964 314.563 C 380.883 316.867 385.876 315.909 388.373 311.682 C 390.867 307.46 392.789 306.304 394.708 305.152 C 396.632 304.002 407.383 296.128 407.383 297.088 C 407.383 298.049 403.35 303.429 400.661 305.346 C 397.974 307.266 389.717 317.254 387.603 318.406 C 385.494 319.556 382.035 322.245 377.425 317.827 C 372.817 313.409 361.104 327.43 359.567 328.773 C 358.029 330.115 355.149 332.612 350.731 335.108 C 346.317 337.605 340.172 340.486 337.676 341.636 C 335.179 342.79 328.459 344.9 328.459 344.9 C 328.459 344.9 335.756 341.061 344.973 335.108 C 354.189 329.155 359.375 324.162 362.639 320.129 C 365.903 316.098 371.857 306.879 375.698 298.045 C 379.539 289.213 381.457 283.834 381.457 283.834 C 381.457 283.834 376.275 286.332 373.009 290.748 C 369.743 295.164 361.873 301.121 359.377 305.727 C 356.876 310.337 345.165 319.937 345.165 319.937 C 345.165 319.937 352.847 306.687 357.648 296.32 C 362.448 285.951 368.786 278.268 372.051 274.621 C 375.312 270.972 383.568 263.675 384.532 265.212 C 385.49 266.751 385.107 268.666 387.221 267.899 C 389.331 267.132 391.062 263.291 391.25 261.371 C 391.444 259.45 392.402 256.569 392.596 252.537 C 392.789 248.506 392.789 245.623 392.789 245.623 C 393.937 246.775 395.86 248.887 396.245 250.041 C 396.63 251.193 397.012 256.569 397.012 258.49 C 397.012 260.41 396.63 263.291 398.357 263.866 C 400.084 264.443 402.004 262.523 402.961 263.866 C 403.925 265.21 405.846 272.89 405.652 274.811 C 405.462 276.733 404.115 281.916 402.196 279.61 C 400.276 277.306 396.245 272.7 395.86 274.042 C 395.476 275.388 394.322 281.722 394.322 281.722 C 394.322 281.722 393.939 278.268 392.402 278.268 C 390.867 278.268 391.058 278.46 389.712 277.306 C 389.712 277.306 387.986 281.916 387.409 282.491 C 386.834 283.068 387.027 285.565 387.027 285.565 C 387.027 285.565 389.712 284.605 391.25 285.757 C 392.787 286.909 396.437 289.404 398.357 289.019 C 400.276 288.635 403.925 288.638 406.42 284.028 C 408.918 279.42 411.797 276.733 410.262 273.084 C 408.726 269.436 409.301 262.908 409.495 260.987 C 409.684 259.063 409.301 254.459 409.301 254.459 C 409.301 254.459 404.691 255.032 403.156 255.609 C 401.621 256.186 395.86 252.922 397.395 251.001 C 398.934 249.079 406.802 242.744 410.837 242.744 C 414.871 242.744 414.486 242.744 416.023 241.592 C 417.558 240.438 420.633 237.756 420.633 237.756 Z " fill="rgb(211,34,41)"/><path d=" M 320.454 345.273 C 320.454 345.273 303.008 345.273 293.897 339.806 C 284.782 334.334 279.578 330.691 274.371 324.184 C 269.163 317.673 259.266 299.19 257.444 292.418 C 255.621 285.649 251.198 262.476 250.676 254.924 C 250.153 247.372 250.153 239.304 250.933 238.521 C 251.716 237.739 255.621 243.727 257.705 247.897 C 259.787 252.06 265.258 267.418 266.038 272.89 C 266.818 278.358 269.683 302.57 271.245 307.781 C 272.806 312.985 274.106 320.537 277.494 324.443 C 280.878 328.348 282.443 329.131 283.221 328.868 C 284.001 328.607 282.441 326.786 282.441 324.184 C 282.441 321.578 283.219 324.184 281.398 317.673 C 279.578 311.163 278.537 302.57 278.796 298.925 C 279.053 295.284 280.357 282.003 279.317 276.274 C 278.274 270.547 275.931 258.828 275.412 257.267 C 274.888 255.708 274.63 259.351 271.765 251.538 C 268.901 243.727 269.161 242.425 267.599 239.823 C 266.038 237.219 264.475 235.137 262.391 233.314 C 260.311 231.492 260.046 229.408 259.787 228.628 C 259.529 227.846 261.35 225.242 258.486 219.252 C 255.621 213.264 254.319 204.151 254.319 200.767 C 254.319 197.383 254.58 190.613 256.403 186.966 C 258.227 183.319 261.615 177.855 262.132 173.947 C 262.652 170.044 267.599 161.709 270.202 158.325 C 272.806 154.941 279.835 146.09 280.357 140.881 C 280.878 135.674 281.398 128.382 282.962 126.823 C 284.523 125.259 288.168 121.355 288.168 121.355 C 288.168 121.355 282.7 125.519 282.7 123.696 C 282.7 121.873 286.086 117.189 286.086 117.189 C 286.086 117.189 274.369 123.957 272.285 126.039 C 270.202 128.121 262.132 139.838 261.089 143.226 C 260.046 146.608 253.537 165.095 252.237 170.824 C 250.933 176.551 249.894 183.319 244.947 179.153 C 239.999 174.989 234.272 171.603 230.886 170.56 C 227.501 169.519 222.555 171.085 221.774 171.603 C 220.992 172.126 220.733 173.687 220.733 173.687 C 220.733 173.687 224.898 170.824 230.629 174.728 C 236.356 178.635 242.602 186.184 245.469 187.227 C 248.331 188.268 246.51 192.174 245.987 194.776 C 245.469 197.379 245.469 199.985 245.469 199.985 C 245.469 199.985 235.575 186.447 231.668 185.143 C 227.76 183.843 225.158 182.018 222.555 182.8 C 219.951 183.58 217.088 182.539 217.088 182.539 L 218.647 174.989 C 218.647 174.989 215.006 182.539 214.744 186.705 C 214.481 190.87 213.702 202.587 213.702 204.932 C 213.702 207.273 213.701 218.729 214.481 220.554 C 215.263 222.377 218.649 232.008 220.212 236.435 C 221.774 240.862 228.284 254.14 229.846 256.746 C 231.409 259.349 234.013 265.335 237.397 266.639 C 240.781 267.943 241.822 266.639 243.126 268.462 C 244.428 270.284 242.085 287.467 257.184 308.299 C 272.285 329.127 276.973 331.734 279.578 333.293 C 282.18 334.854 293.372 343.446 305.873 345.271 C 318.372 347.094 320.454 345.273 320.454 345.273 Z " fill="rgb(211,34,41)"/><path d=" M 369.284 149.666 C 369.284 149.666 376.705 140.799 384.486 143.874 C 392.272 146.951 400.599 156.181 400.057 176.458 C 399.513 196.731 393.359 215.194 390.461 217.367 C 387.565 219.538 385.753 217.186 387.022 213.744 C 388.29 210.307 398.97 184.783 396.616 171.387 C 394.263 157.993 389.196 151.477 383.58 151.839 C 377.972 152.2 372.54 156.364 371.092 158.718 C 369.644 161.07 365.48 163.787 365.119 161.614 C 364.76 159.443 365.48 154.918 369.284 149.666 Z " fill="rgb(211,34,41)"/><path d=" M 324.272 152.352 C 324.272 152.352 318.874 156.67 317.792 154.782 C 316.716 152.892 318.874 139.665 300.516 137.235 C 282.161 134.807 280.542 156.13 278.113 162.34 C 275.683 168.55 275.951 173.408 276.221 177.188 C 276.493 180.968 273.251 186.636 272.173 181.776 C 271.093 176.918 271.631 165.58 275.951 154.782 C 280.271 143.985 286.479 127.247 301.866 128.597 C 317.254 129.947 325.352 136.157 324.272 152.352 Z " fill="rgb(211,34,41)"/><path d=" M 306.429 149.915 C 306.429 149.915 304.107 165.604 302.609 169.702 C 301.107 173.793 298.786 175.977 298.651 171.472 C 298.514 166.973 299.744 157.283 306.429 149.915 Z " fill="rgb(211,34,41)"/><path d=" M 297.286 190.983 C 297.286 190.983 296.332 201.9 293.739 203.81 C 291.146 205.722 289.51 201.63 290.603 196.032 C 291.692 190.44 293.33 187.71 293.469 189.073 C 293.604 190.44 292.239 195.623 293.469 195.76 C 294.697 195.897 295.104 190.166 296.33 190.166 C 297.56 190.166 297.014 189.622 297.286 190.983 Z " fill="rgb(211,34,41)"/><path d=" M 301.969 165.847 C 301.969 165.847 302.923 176.083 302.516 177.037 C 302.104 177.991 299.648 175.537 299.378 176.354 C 299.104 177.174 300.06 180.31 298.965 181.538 C 297.876 182.764 294.603 181.264 296.105 178.945 C 297.604 176.628 297.059 175.672 295.692 176.218 C 294.327 176.763 290.646 183.039 290.372 180.994 C 290.098 178.945 289.826 177.719 290.646 176.763 C 291.463 175.809 292.689 174.99 292.144 174.309 C 291.602 173.625 288.735 170.895 289.965 166.531 L 290.39 165.801 C 290.39 165.801 291.359 169.601 292.878 171.33 C 294.396 173.055 294.396 172.85 294.396 172.85 C 294.396 172.85 291.012 167.874 291.774 163.866 C 292.532 159.861 294.466 157.581 294.466 157.581 C 294.466 157.581 293.985 166.354 295.64 169.118 C 295.64 169.118 297.645 171.469 297.993 171.469 C 298.337 171.469 298.682 170.779 297.85 168.429 C 297.022 166.078 296.815 161.932 298.198 160.689 C 298.198 160.689 297.161 164.283 297.922 166.078 C 297.922 166.078 298.061 163.108 299.028 161.657 C 299.028 161.657 298.059 165.041 299.234 167.878 C 300.41 170.705 300.961 171.193 300.961 171.193 C 300.961 171.193 300.903 170.302 301.969 165.847 Z " fill="rgb(35,31,32)"/><path d=" M 374.723 206.744 C 374.723 206.744 374.072 215.403 372.883 218.541 C 371.692 221.679 369.205 226.548 367.581 222.328 C 365.956 218.11 367.474 208.906 370.287 206.312 C 370.287 206.312 370.936 206.203 370.718 207.824 C 370.503 209.448 370.718 212.912 371.369 212.804 C 372.018 212.697 371.801 211.288 373.209 208.15 C 374.614 205.012 374.723 205.986 374.723 206.744 Z " fill="rgb(211,34,41)"/><path d=" M 350.701 210.717 C 350.701 210.717 355.213 213.585 355.285 220.902 C 355.285 220.902 350.599 223.802 349.776 223.317 C 348.952 222.835 350.444 220.967 348.622 216.867 C 346.801 212.766 346.869 213.67 346.869 213.67 C 346.869 213.67 351.23 210.495 350.701 210.717 Z " fill="rgb(255,255,255)"/><path d=" M 275.685 201.849 C 275.685 201.849 290.953 205.886 289.2 213.081 C 287.443 220.276 282.18 223.964 274.282 222.209 C 266.384 220.452 258.661 214.133 261.82 207.99 C 264.98 201.849 270.946 200.972 275.685 201.849 Z " fill="rgb(211,34,41)"/><path d=" M 270.069 208.343 C 270.069 208.343 274.633 205.885 275.861 207.818 C 277.089 209.746 275.685 211.501 272.529 211.15 C 269.368 210.799 268.49 209.219 270.069 208.343 Z " fill="rgb(255,255,255)"/><path d=" M 379.935 224.841 C 379.935 224.841 391.696 227.119 392.397 233.965 C 393.1 240.811 387.306 244.844 381.867 242.915 C 376.427 240.986 371.867 240.811 370.459 235.368 C 369.056 229.928 375.021 224.138 379.935 224.841 Z " fill="rgb(211,34,41)"/><path d=" M 382.218 227.648 C 382.218 227.648 385.727 229.227 385.378 231.685 C 385.028 234.14 382.044 233.789 379.936 232.735 C 377.831 231.685 375.551 227.472 378.181 227.296 C 380.814 227.119 380.992 227.296 382.218 227.648 Z " fill="rgb(255,255,255)"/><path d=" M 378.429 249.588 C 378.429 249.588 378.429 250.93 377.088 252.874 C 375.744 254.812 373.802 257.051 372.907 259.74 C 372.01 262.425 371.117 266.906 369.623 265.859 C 368.13 264.813 369.024 263.023 369.024 263.023 C 369.024 263.023 361.86 262.126 357.678 264.813 C 353.501 267.503 350.213 274.22 347.378 280.339 C 344.543 286.458 339.319 306.018 320.954 306.018 C 302.593 306.018 300.502 283.176 298.262 272.875 C 296.025 262.575 290.799 249.588 285.724 244.512 C 280.65 239.435 281.393 238.091 279.453 238.091 C 277.512 238.091 275.572 238.54 275.724 236.447 C 275.871 234.361 277.813 227.193 279.903 227.791 C 281.991 228.388 293.937 234.061 306.623 246.899 C 319.314 259.74 321.553 257.201 325.733 258.544 C 329.912 259.886 334.241 259.441 343.646 258.843 C 353.052 258.248 354.248 256.454 360.515 254.215 C 366.786 251.973 376.04 249.438 378.429 249.588 Z " fill="rgb(211,34,41)"/><path d=" M 366.934 257.499 C 366.934 257.499 369.324 258.396 369.471 259.887 C 369.623 261.379 369.026 262.274 366.487 261.679 C 363.95 261.081 356.934 263.023 354.396 264.366 C 351.859 265.71 344.396 269.442 341.557 273.174 C 338.72 276.905 336.483 283.174 333.946 286.608 C 331.405 290.042 326.478 292.879 320.058 291.832 C 313.641 290.788 311.549 286.459 309.314 278.997 C 307.072 271.533 301.697 255.707 294.534 248.841 C 287.369 241.973 286.47 244.211 287.219 240.331 C 287.964 236.449 292.295 241.823 294.387 243.318 C 296.472 244.81 304.387 252.874 306.177 256.305 C 307.967 259.739 311.252 264.366 320.807 266.455 C 330.36 268.545 330.807 268.992 340.362 266.159 C 349.918 263.321 358.276 257.05 366.934 257.499 Z " fill="rgb(35,31,32)"/><path d=" M 329.911 283.025 L 329.764 286.159 C 329.764 286.159 324.242 289.743 321.553 288.998 C 318.866 288.251 315.432 286.609 314.087 284.22 L 314.087 279.743 C 314.087 279.743 317.969 283.622 321.553 283.774 C 325.137 283.922 328.269 283.92 329.911 283.025 Z " fill="rgb(255,255,255)"/><path d=" M 346.334 280.489 C 346.334 280.489 341.558 285.565 339.764 288.398 C 337.974 291.238 332.004 298.103 325.883 298.852 C 319.762 299.597 310.059 297.507 307.073 290.042 C 304.085 282.578 302.145 273.173 300.802 270.338 C 299.46 267.5 299.158 266.906 299.158 266.906 C 299.158 266.906 300.356 276.158 300.356 278.699 C 300.356 281.236 302.446 302.731 317.225 303.478 C 332.003 304.224 337.526 297.206 339.468 294.968 C 341.408 292.731 345.887 283.325 346.334 280.489 Z " fill="rgb(35,31,32)"/><path d=" M 319.663 332.08 C 319.663 332.08 304.41 332.08 299.615 323.362 C 294.82 314.647 295.837 311.74 296.128 308.69 C 296.422 305.641 297 302.007 297 302.007 C 297 302.007 290.031 314.503 293.949 322.784 C 297.873 331.063 302.23 333.241 306.152 334.548 C 310.075 335.856 314.579 335.71 314.579 335.71 C 314.579 335.71 308.913 334.695 306.443 333.095 C 303.976 331.499 302.374 329.465 302.374 329.465 C 302.374 329.465 308.331 332.37 311.674 332.66 C 315.014 332.953 319.663 332.08 319.663 332.08 Z " fill="rgb(35,31,32)"/><path d=" M 252.22 195.412 C 252.22 195.412 250.688 198.473 251.199 201.191 C 251.709 203.912 250.518 202.042 250.86 206.8 C 251.199 211.562 252.73 219.724 253.919 223.123 C 255.108 226.524 258.509 237.912 258.509 237.912 C 258.509 237.912 259.528 239.953 258.851 239.953 C 258.17 239.953 255.108 239.783 253.068 237.403 C 251.029 235.021 249.498 232.473 249.498 235.364 C 249.498 238.254 247.632 238.592 248.138 247.263 C 248.647 255.933 248.821 258.143 250.35 264.262 C 251.879 270.383 253.577 285.685 254.598 288.574 C 255.619 291.462 257.322 299.627 258.17 301.496 C 259.019 303.364 256.299 303.364 254.598 301.154 C 252.9 298.944 249.838 295.544 249.498 294.355 C 249.157 293.165 244.059 277.695 243.889 272.254 C 243.719 266.812 239.979 266.812 239.979 266.812 C 239.979 266.812 243.38 264.604 243.548 262.734 C 243.719 260.863 243.719 252.022 242.359 248.453 C 241 244.883 235.732 238.254 235.39 237.744 C 235.049 237.233 231.647 233.492 232.839 230.43 C 234.029 227.371 237.938 224.309 238.959 220.399 C 239.979 216.488 241 212.921 241.509 212.921 C 242.017 212.921 244.059 215.98 244.227 218.362 C 244.399 220.742 240.488 228.39 239.467 229.581 C 238.45 230.77 236.238 232.471 237.087 234.849 C 237.938 237.231 243.548 246.073 243.719 247.602 C 243.889 249.131 243.889 242.67 245.42 237.401 C 246.949 232.127 249.327 234.171 247.968 229.579 C 246.609 224.989 246.609 220.399 245.588 215.129 C 244.567 209.861 237.77 203.059 236.409 201.017 C 235.049 198.98 226.038 195.24 226.038 195.24 C 226.038 195.24 229.777 194.898 231.819 195.751 C 231.819 195.751 226.548 188.271 223.488 187.758 C 220.429 187.248 219.238 187.757 218.047 188.779 C 216.858 189.798 216.35 190.48 216.35 189.97 C 216.35 189.46 216.518 187.25 218.388 186.059 C 220.259 184.868 223.318 184.868 227.399 186.567 C 231.478 188.271 233.18 188.779 234.371 190.309 C 235.558 191.84 236.238 192.688 236.238 192.688 C 236.238 192.688 236.747 190.819 235.728 189.288 C 234.709 187.758 232.329 185.889 232.329 185.889 C 232.329 185.889 236.921 185.721 240.32 192.352 C 243.719 198.981 246.269 202.721 246.269 202.721 C 246.269 202.721 249.329 196.77 250.01 195.24 C 250.688 193.709 253.919 193.199 253.919 193.199 L 252.22 195.412 Z " fill="rgb(35,31,32)"/><path d=" M 253.825 169.506 C 253.825 169.506 253.093 176.268 252.547 180.291 C 252 184.311 251.63 185.77 249.437 185.589 C 247.245 185.407 245.784 185.957 243.956 184.128 C 242.128 182.299 240.666 179.375 240.666 179.375 L 245.416 182.484 L 241.396 176.816 C 241.396 176.816 246.515 181.568 247.978 180.838 C 249.437 180.106 251.451 173.345 251.813 172.429 C 252.179 171.516 253.825 169.506 253.825 169.506 Z " fill="rgb(35,31,32)"/><path d=" M 315.219 101.835 C 315.219 101.835 321.358 101.589 328.971 106.009 C 336.585 110.428 340.267 118.288 340.267 118.288 C 340.267 118.288 328.727 108.22 324.55 107.237 C 320.374 106.255 312.021 106.503 312.517 104.535 C 313.007 102.571 313.741 101.835 315.219 101.835 Z " fill="rgb(211,34,41)"/><path d=" M 299.989 110.429 C 299.989 110.429 307.357 106.5 320.62 112.149 C 333.882 117.797 336.338 125.904 336.338 125.904 C 336.338 125.904 330.443 119.272 317.428 115.097 C 304.411 110.921 303.427 114.359 299.497 114.115 C 295.568 113.869 297.779 111.165 299.989 110.429 Z " fill="rgb(211,34,41)"/><path d=" M 397.736 130.323 C 397.736 130.323 392.58 123.448 382.511 122.71 C 372.44 121.972 364.092 129.339 364.092 129.339 C 364.092 129.339 375.879 126.885 381.527 126.885 C 387.175 126.885 388.652 128.601 390.86 130.323 C 393.072 132.045 392.09 132.289 394.792 132.781 C 397.493 133.271 399.459 132.777 397.736 130.323 Z " fill="rgb(211,34,41)"/><path d=" M 368.513 116.324 C 368.513 116.324 373.67 112.642 381.282 113.132 C 388.893 113.622 394.792 118.535 395.036 121.483 C 395.282 124.427 391.354 121.727 386.439 119.025 C 381.528 116.324 376.862 114.852 373.668 115.588 C 370.477 116.324 367.285 117.798 367.285 117.798 L 368.513 116.324 Z " fill="rgb(211,34,41)"/><path d=" M 418.711 241.404 C 418.711 241.404 419.862 245.82 419.862 248.124 C 419.862 250.43 418.904 253.885 418.904 253.885 C 418.904 253.885 418.519 253.885 417.75 251.581 C 416.98 249.277 415.061 248.124 414.486 248.509 C 413.909 248.892 413.14 251.965 413.14 251.965 C 413.14 251.965 411.607 251.198 410.455 251.773 C 409.304 252.348 409.687 252.156 406.421 253.116 C 403.155 254.079 400.467 256.381 399.699 256.574 C 398.934 256.766 395.477 258.11 395.477 259.455 C 395.477 260.797 396.245 263.1 397.205 264.446 C 398.164 265.792 399.89 270.208 399.699 272.126 C 399.509 274.047 398.549 277.121 398.549 277.121 C 398.549 277.121 396.824 273.664 394.323 272.51 C 391.827 271.358 391.444 274.434 390.483 275.586 C 389.525 276.736 384.338 280.19 384.338 280.19 C 384.338 280.19 390.675 272.13 391.061 268.289 C 391.444 264.446 395.285 256.572 396.631 253.31 C 397.974 250.046 409.112 245.053 411.607 244.67 C 414.103 244.285 417.175 243.901 418.711 241.404 Z " fill="rgb(35,31,32)"/><path d=" M 422.168 220.281 C 422.168 220.281 419.289 231.611 415.642 233.913 C 411.993 236.219 405.656 233.338 404.887 235.258 C 404.117 237.177 402.392 237.945 402.007 236.219 C 401.623 234.492 405.652 218.551 406.231 218.361 C 406.808 218.169 405.079 227.962 405.464 230.074 C 405.846 232.186 407.768 231.226 411.993 228.537 C 416.217 225.849 420.439 219.896 422.168 220.281 Z " fill="rgb(211,34,41)"/><path d=" M 233.49 204.67 L 236.875 211.962 L 239.219 211.44 C 239.219 211.44 233.49 216.648 233.49 218.21 C 233.49 219.773 237.396 221.075 236.092 223.157 C 234.792 225.241 231.146 227.581 231.926 230.445 C 232.708 233.31 230.887 235.394 229.846 238.256 C 228.804 241.123 228.542 243.985 228.542 243.985 C 228.542 243.985 223.595 230.967 226.201 223.675 C 228.804 216.387 230.367 207.535 233.49 204.67 Z " fill="rgb(35,31,32)"/><path d=" M 240.521 246.85 C 240.521 246.85 241.042 254.924 240.521 257.265 C 239.999 259.608 236.351 257.265 234.533 253.879 C 232.708 250.495 230.886 244.509 230.886 244.509 C 230.886 244.509 230.627 245.809 232.449 245.027 C 234.27 244.246 232.967 242.685 234.533 243.205 C 236.092 243.727 236.876 243.989 237.398 243.205 C 237.917 242.425 239.741 245.809 240.521 246.85 Z " fill="rgb(35,31,32)"/><path d=" M 245.987 219.773 C 245.987 219.773 246.091 227.15 247.029 228.365 C 247.968 229.58 243.907 237.215 243.907 237.215 L 238.437 232.01 C 238.437 232.01 243.125 225.502 245.987 219.773 Z " fill="rgb(35,31,32)"/><path d=" M 390.897 312.534 C 390.897 312.534 389.416 314.647 389.416 315.916 C 389.416 317.183 388.36 319.084 386.037 319.932 C 383.713 320.776 380.33 321.835 379.694 322.046 C 379.063 322.255 378.004 323.313 378.004 323.313 L 402.1 347.198 L 362.786 325.639 C 362.786 325.639 365.956 318.873 367.646 317.183 C 369.338 315.492 368.493 318.029 370.82 312.957 C 373.144 307.885 373.777 305.137 374.622 306.616 C 375.467 308.095 375.049 313.166 376.314 314.226 C 377.582 315.28 380.328 317.608 382.866 316.759 C 385.403 315.916 390.897 312.534 390.897 312.534 Z " fill="rgb(35,31,32)"/><path d=" M 395.971 310.632 L 404.422 314.646 L 391.112 315.492 L 395.971 310.632 Z " fill="rgb(35,31,32)"/><path d=" M 356.234 335.572 C 356.445 336.417 373.991 382.072 373.991 382.072 L 345.457 341.91 L 356.234 335.572 Z " fill="rgb(35,31,32)"/><path d=" M 335.311 347.406 L 332.565 397.711 L 321.782 349.307 L 335.311 347.406 Z " fill="rgb(35,31,32)"/><path d=" M 305.505 348.254 L 281.198 394.119 L 294.302 344.24 L 305.505 348.254 Z " fill="rgb(35,31,32)"/><path d=" M 269.361 327.541 L 278.45 337.685 L 235.546 361.148 L 269.361 327.541 Z " fill="rgb(35,31,32)"/><path d=" M 259.427 315.28 L 251.817 303.867 L 214.616 312.954 L 259.427 315.28 Z " fill="rgb(35,31,32)"/><path d=" M 245.267 286.53 L 243.575 276.596 L 209.758 269.199 L 245.267 286.53 Z " fill="rgb(35,31,32)"/><path d=" M 387.608 207.376 C 387.608 207.376 384.564 206.361 383.889 202.646 C 383.211 198.927 383.886 188.449 377.804 187.099 C 371.721 185.746 368.341 187.436 366.651 190.14 C 364.961 192.845 363.949 198.25 363.949 198.25 C 363.949 198.25 367.328 188.788 372.395 188.449 C 377.467 188.113 379.496 191.155 379.834 193.518 C 380.173 195.885 379.496 202.644 380.509 205.009 C 381.521 207.376 383.886 209.067 385.578 209.067 C 387.268 209.067 387.608 207.376 387.608 207.376 Z " fill="rgb(211,34,41)"/><path d=" M 389.766 179.741 C 389.766 179.741 389.892 184.416 388.627 186.185 C 387.364 187.953 384.206 191.493 384.206 191.493 C 384.206 191.493 384.08 192.88 384.962 193.133 C 385.848 193.386 387.494 192.756 388.881 190.605 C 390.271 188.46 391.66 187.574 392.039 184.921 C 392.039 184.921 392.768 187.417 389.737 192.393 C 386.708 197.373 386.599 196.617 386.382 197.481 C 386.166 198.348 384.433 197.592 383.351 195.426 C 382.27 193.261 381.62 191.313 380.32 190.988 C 379.02 190.662 377.508 190.232 377.077 190.881 C 376.64 191.53 377.29 195.426 376.64 196.832 C 375.993 198.241 373.502 199.972 372.96 198.999 C 372.42 198.022 372.42 190.341 373.286 189.043 C 374.153 187.742 379.13 187.09 380.213 187.308 C 381.295 187.524 382.27 187.632 383.026 186.984 C 383.786 186.333 387.198 186.892 389.766 179.741 Z " fill="rgb(35,31,32)"/><path d=" M 388.871 109.625 C 388.871 109.625 392.157 78.212 388.871 77.115 C 385.583 76.018 366.223 66.521 328.6 68.714 C 290.975 70.907 269.422 88.44 263.214 98.668 C 257.003 108.894 250.43 126.061 250.43 126.061 L 261.387 137.75 C 261.387 137.75 272.346 113.643 318.007 100.493 C 318.007 100.493 360.381 92.092 388.871 109.625 Z " fill="rgb(255,255,255)"/><path d=" M 388.871 109.625 C 388.871 109.625 392.157 78.212 388.871 77.115 C 385.583 76.018 366.223 66.521 328.6 68.714 C 290.975 70.907 269.422 88.44 263.214 98.668 C 257.003 108.894 250.43 126.061 250.43 126.061 L 261.387 137.75 C 261.387 137.75 272.346 113.643 318.007 100.493 C 318.007 100.493 360.381 92.092 388.871 109.625 Z " fill="none" vector-effect="non-scaling-stroke" stroke-width="0.696" stroke="rgb(54,54,57)" stroke-linejoin="miter" stroke-linecap="butt" stroke-miterlimit="3" style="mix-blend-mode:source-over;"/><path d=" M 388.907 79.078 C 388.907 79.078 385.711 85.926 386.17 90.488 C 386.625 95.052 385.711 103.04 385.711 103.04 L 381.147 101.67 C 381.147 101.67 382.29 75.196 380.69 74.969 C 379.095 74.743 378.41 90.258 375.444 92.77 C 372.474 95.281 368.14 95.736 364.944 95.736 C 361.749 95.736 317.023 87.292 275.259 119.471 L 264.989 129.056 C 264.989 129.056 259.056 125.176 259.286 121.98 C 259.511 118.785 259.511 109.202 263.62 101.443 C 267.729 93.683 276.171 84.097 287.812 78.848 C 299.449 73.602 334.822 68.352 344.865 68.352 C 354.901 68.352 367.981 71.182 368.892 70.952 C 369.806 70.725 360.698 69.109 358.418 68.195 C 356.134 67.283 329.799 64.016 314.739 67.895 C 299.677 71.775 285.53 73.83 274.12 84.553 C 262.709 95.281 254.034 112.396 252.667 117.187 C 251.299 121.98 247.192 124.49 250.385 128.369 C 253.581 132.249 261.338 138.868 261.338 138.868 C 261.338 138.868 273.436 111.711 322.498 99.617 C 322.498 99.617 368.979 94.303 388.87 109.626 C 388.87 109.626 391.226 80.128 390.049 78.621 C 388.87 77.116 388.907 79.078 388.907 79.078 Z " fill="rgb(35,31,32)"/><path d=" M 348.709 242.658 C 348.709 242.658 344.018 244.709 334.928 242.658 C 325.841 240.608 319.964 239.544 317.773 239.783 C 315.58 240.02 303.854 237.381 301.509 227.707 C 299.164 218.034 300.336 208.945 302.387 206.894 C 302.387 206.894 300.923 216.273 303.268 220.085 C 305.611 223.896 306.2 228.882 310.596 230.054 C 314.995 231.226 316.46 230.932 317.925 232.105 C 319.391 233.279 319.391 235.33 322.91 235.622 C 326.427 235.916 327.6 234.452 329.945 236.21 C 332.29 237.969 330.825 239.727 336.983 239.433 C 343.135 239.141 348.709 242.658 348.709 242.658 Z " fill="rgb(35,31,32)"/></g><g opacity="0.09" style="mix-blend-mode:linear_burn;"><path d=" M 252.976 292.523 C 252.976 292.523 249.725 293.486 249.603 294.45 C 249.482 295.414 251.29 296.378 251.41 297.582 C 251.53 298.786 251.53 299.87 252.013 301.074 C 252.495 302.279 253.939 305.65 254.661 305.289 C 255.383 304.928 254.781 301.675 254.422 299.267 C 254.059 296.859 253.578 292.523 252.976 292.523 Z " fill="rgb(255,255,255)"/></g><g style="mix-blend-mode:divide;opacity:0.13;"><path d=" M 198.49 497.379 C 200.535 496.357 203.797 494.022 202.823 490.904 C 201.85 487.788 198.928 486.62 200.097 484.478 C 201.266 482.335 204.577 480.972 200.681 476.492 C 196.785 472.013 195.423 472.208 197.176 469.287 C 198.928 466.365 198.539 462.08 193.67 460.523 C 188.802 458.964 188.412 462.471 185.88 460.133 C 183.347 457.796 178.089 455.458 175.168 457.99 C 172.247 460.523 172.831 460.523 168.741 459.354 C 164.651 458.186 161.536 455.85 159.588 458.186 C 157.64 460.523 158.615 462.471 155.109 462.859 C 153.29 463.063 151.264 463.582 149.706 464.524 C 144.195 460.808 135.228 457.478 120.725 457.28 C 120.725 457.28 111.084 457.573 104.949 459.325 C 98.816 461.078 98.085 461.809 97.062 462.246 C 96.04 462.686 92.096 464.437 91.658 465.168 C 91.22 465.899 91.511 466.191 89.321 467.504 C 87.13 468.819 84.647 471.887 83.917 473.056 C 83.463 473.781 83.009 475.071 82.661 476.084 C 81.652 475.79 80.323 475.996 78.332 477.268 C 73.328 480.464 73.321 481.84 70.69 479.677 C 68.057 477.514 63.762 477.27 61.507 481.858 C 59.249 486.445 62.66 487.345 59.976 489.507 C 57.293 491.668 54.208 496.526 56.284 499.788 C 58.36 503.05 58.446 502.471 56.689 506.346 C 54.933 510.219 52.163 512.957 54.189 515.228 C 56.215 517.497 58.285 516.819 58.155 520.345 C 58.025 523.868 58.936 528.338 62.376 529.044 C 65.815 529.752 69.425 529.304 70.98 532.093 C 72.535 534.884 79.706 532.994 81.91 532.733 C 83.124 532.586 84.663 530.645 86.229 528.922 C 86.563 530.472 86.921 532.032 87.281 533.506 C 87.246 534.417 87.273 535.506 87.326 536.412 C 87.442 538.378 88.365 539.36 88.656 540.055 C 88.897 540.633 89.454 541.007 89.634 541.115 C 90.738 543.595 92.427 546.651 93.64 547.19 C 95.002 547.795 98.631 549.458 99.689 550.669 C 100.748 551.88 103.621 554.297 105.89 555.81 C 108.158 557.322 112.545 561.558 113.755 562.918 C 114.965 564.277 118.291 569.267 118.291 569.267 C 118.291 569.267 117.535 574.108 116.174 579.099 C 114.813 584.088 112.695 600.727 112.695 600.727 C 112.695 600.727 114.661 598.761 115.72 597.55 C 116.779 596.339 122.375 590.29 123.737 588.476 C 125.097 586.661 129.937 583.636 129.937 583.636 C 129.937 583.636 132.205 587.568 134.172 589.837 C 136.138 592.106 142.339 594.374 142.339 594.374 C 142.339 594.374 137.802 604.357 137.348 605.717 C 136.893 607.077 135.231 613.432 135.231 615.245 C 135.231 617.06 134.777 623.413 134.777 623.413 C 140.071 621.297 146.574 610.558 146.574 610.558 L 149.297 619.329 C 151.414 627.496 161.093 634 161.093 634 C 161.093 634 160.186 630.067 160.035 626.892 C 159.882 623.716 160.035 615.398 160.639 613.129 C 161.244 610.86 158.371 603.903 157.766 602.541 C 157.161 601.18 155.346 599.213 154.438 598.458 C 153.531 597.702 153.683 597.098 154.287 596.34 C 154.893 595.584 154.287 594.98 155.043 593.316 C 155.798 591.651 154.592 588.178 154.592 588.178 C 170.018 579.406 177.127 561.407 177.127 561.407 C 189.226 558.382 199.209 562.619 199.209 562.619 C 199.36 560.502 198.451 553.846 195.276 547.494 C 192.1 541.143 185.296 539.629 183.027 538.42 C 180.759 537.209 171.079 530.402 171.079 530.402 C 171.079 530.402 172.592 528.891 173.348 527.529 C 174.104 526.168 175.465 523.294 176.978 516.791 C 178.49 510.288 178.641 502.725 178.338 498.339 C 178.142 495.51 177.815 492.94 176.963 490.817 C 176.866 490.566 176.764 490.324 176.651 490.105 C 176.636 490.077 176.623 490.057 176.609 490.029 C 176.513 489.837 176.407 489.652 176.299 489.469 C 175.085 487.328 174.08 486.605 172.724 486.605 C 172.525 486.605 172.315 486.63 172.1 486.667 C 170.43 486.813 168.795 487.961 167.754 488.813 C 166.09 490.175 165.032 490.326 165.032 490.326 C 165.031 490.304 165.025 490.274 165.022 490.249 C 165.14 490.012 165.218 489.86 165.218 489.86 C 165.218 489.86 166.052 489.785 167.568 488.496 C 169.084 487.206 171.588 486.22 172.726 486.296 C 173.864 486.372 175.379 487.434 176.137 488.496 C 176.897 489.558 178.033 492.212 178.261 495.018 C 178.49 497.824 178.641 501.692 178.641 501.692 C 178.641 501.692 178.565 507.077 178.565 508.139 C 178.565 509.2 177.457 515.491 177.311 516.659 C 177.165 517.828 176.435 519.436 177.165 520.02 C 177.895 520.604 180.524 522.503 181.839 520.02 C 183.154 517.536 183.884 516.659 185.344 516.806 C 186.805 516.952 191.187 517.536 192.064 513.885 C 192.94 510.233 192.356 508.481 194.401 507.458 C 196.445 506.436 198.928 506.729 197.76 503.222 C 196.592 499.717 196.445 498.401 198.49 497.379 Z " fill="rgb(0,0,0)"/><path d=" M 198.49 497.379 C 200.535 496.357 203.797 494.022 202.823 490.904 C 201.85 487.788 198.928 486.62 200.097 484.478 C 201.266 482.335 204.577 480.972 200.681 476.492 C 196.785 472.013 195.423 472.208 197.176 469.287 C 198.928 466.365 198.539 462.08 193.67 460.523 C 188.802 458.964 188.412 462.471 185.88 460.133 C 183.347 457.796 178.089 455.458 175.168 457.99 C 172.247 460.523 172.831 460.523 168.741 459.354 C 164.651 458.186 161.536 455.85 159.588 458.186 C 157.64 460.523 158.615 462.471 155.109 462.859 C 153.29 463.063 151.264 463.582 149.706 464.524 C 144.195 460.808 135.228 457.478 120.725 457.28 C 120.725 457.28 111.084 457.573 104.949 459.325 C 98.816 461.078 98.085 461.809 97.062 462.246 C 96.04 462.686 92.096 464.437 91.658 465.168 C 91.22 465.899 91.511 466.191 89.321 467.504 C 87.13 468.819 84.647 471.887 83.917 473.056 C 83.463 473.781 83.009 475.071 82.661 476.084 C 81.652 475.79 80.323 475.996 78.332 477.268 C 73.328 480.464 73.321 481.84 70.69 479.677 C 68.057 477.514 63.762 477.27 61.507 481.858 C 59.249 486.445 62.66 487.345 59.976 489.507 C 57.293 491.668 54.208 496.526 56.284 499.788 C 58.36 503.05 58.446 502.471 56.689 506.346 C 54.933 510.219 52.163 512.957 54.189 515.228 C 56.215 517.497 58.285 516.819 58.155 520.345 C 58.025 523.868 58.936 528.338 62.376 529.044 C 65.815 529.752 69.425 529.304 70.98 532.093 C 72.535 534.884 79.706 532.994 81.91 532.733 C 83.124 532.586 84.663 530.645 86.229 528.922 C 86.563 530.472 86.921 532.032 87.281 533.506 C 87.246 534.417 87.273 535.506 87.326 536.412 C 87.442 538.378 88.365 539.36 88.656 540.055 C 88.897 540.633 89.454 541.007 89.634 541.115 C 90.738 543.595 92.427 546.651 93.64 547.19 C 95.002 547.795 98.631 549.458 99.689 550.669 C 100.748 551.88 103.621 554.297 105.89 555.81 C 108.158 557.322 112.545 561.558 113.755 562.918 C 114.965 564.277 118.291 569.267 118.291 569.267 C 118.291 569.267 117.535 574.108 116.174 579.099 C 114.813 584.088 112.695 600.727 112.695 600.727 C 112.695 600.727 114.661 598.761 115.72 597.55 C 116.779 596.339 122.375 590.29 123.737 588.476 C 125.097 586.661 129.937 583.636 129.937 583.636 C 129.937 583.636 132.205 587.568 134.172 589.837 C 136.138 592.106 142.339 594.374 142.339 594.374 C 142.339 594.374 137.802 604.357 137.348 605.717 C 136.893 607.077 135.231 613.432 135.231 615.245 C 135.231 617.06 134.777 623.413 134.777 623.413 C 140.071 621.297 146.574 610.558 146.574 610.558 L 149.297 619.329 C 151.414 627.496 161.093 634 161.093 634 C 161.093 634 160.186 630.067 160.035 626.892 C 159.882 623.716 160.035 615.398 160.639 613.129 C 161.244 610.86 158.371 603.903 157.766 602.541 C 157.161 601.18 155.346 599.213 154.438 598.458 C 153.531 597.702 153.683 597.098 154.287 596.34 C 154.893 595.584 154.287 594.98 155.043 593.316 C 155.798 591.651 154.592 588.178 154.592 588.178 C 170.018 579.406 177.127 561.407 177.127 561.407 C 189.226 558.382 199.209 562.619 199.209 562.619 C 199.36 560.502 198.451 553.846 195.276 547.494 C 192.1 541.143 185.296 539.629 183.027 538.42 C 180.759 537.209 171.079 530.402 171.079 530.402 C 171.079 530.402 172.592 528.891 173.348 527.529 C 174.104 526.168 175.465 523.294 176.978 516.791 C 178.49 510.288 178.641 502.725 178.338 498.339 C 178.142 495.51 177.815 492.94 176.963 490.817 C 176.866 490.566 176.764 490.324 176.651 490.105 C 176.636 490.077 176.623 490.057 176.609 490.029 C 176.513 489.837 176.407 489.652 176.299 489.469 C 175.085 487.328 174.08 486.605 172.724 486.605 C 172.525 486.605 172.315 486.63 172.1 486.667 C 170.43 486.813 168.795 487.961 167.754 488.813 C 166.09 490.175 165.032 490.326 165.032 490.326 C 165.031 490.304 165.025 490.274 165.022 490.249 C 165.14 490.012 165.218 489.86 165.218 489.86 C 165.218 489.86 166.052 489.785 167.568 488.496 C 169.084 487.206 171.588 486.22 172.726 486.296 C 173.864 486.372 175.379 487.434 176.137 488.496 C 176.897 489.558 178.033 492.212 178.261 495.018 C 178.49 497.824 178.641 501.692 178.641 501.692 C 178.641 501.692 178.565 507.077 178.565 508.139 C 178.565 509.2 177.457 515.491 177.311 516.659 C 177.165 517.828 176.435 519.436 177.165 520.02 C 177.895 520.604 180.524 522.503 181.839 520.02 C 183.154 517.536 183.884 516.659 185.344 516.806 C 186.805 516.952 191.187 517.536 192.064 513.885 C 192.94 510.233 192.356 508.481 194.401 507.458 C 196.445 506.436 198.928 506.729 197.76 503.222 C 196.592 499.717 196.445 498.401 198.49 497.379 Z " fill="none" vector-effect="non-scaling-stroke" stroke-width="10" stroke="rgb(0,0,0)" stroke-linejoin="miter" stroke-linecap="round" stroke-miterlimit="3" style="mix-blend-mode:source-over;"/><path d=" M 86.347 514.311 C 86.347 514.311 86.395 513.474 85.342 511.786 C 84.29 510.096 83.682 507.474 83.925 506.361 C 84.167 505.247 85.439 503.904 86.601 503.307 C 87.762 502.714 90.555 501.979 93.364 502.165 C 96.174 502.352 100.022 502.77 100.022 502.77 C 100.022 502.77 105.337 503.635 106.388 503.792 C 107.438 503.948 113.497 505.967 114.631 506.284 C 115.766 506.599 117.248 507.557 117.933 506.922 C 118.618 506.286 120.882 503.962 118.618 502.298 C 116.356 500.633 115.597 499.781 115.955 498.359 C 116.315 496.935 117.535 492.686 114.055 491.284 C 110.57 489.88 108.75 490.202 108.039 488.029 C 107.328 485.855 107.982 483.441 104.343 484.083 C 100.704 484.724 99.383 484.674 98.671 482.503 C 97.959 480.329 96.128 476.76 92.902 477.264 C 89.676 477.772 88.092 480.49 86.144 479.018 C 84.197 477.548 83.335 474.072 78.332 477.268 C 73.328 480.464 73.321 481.84 70.69 479.677 C 68.057 477.514 63.762 477.27 61.507 481.859 C 59.249 486.445 62.66 487.345 59.976 489.507 C 57.293 491.668 54.208 496.527 56.284 499.789 C 58.36 503.049 58.446 502.471 56.689 506.346 C 54.933 510.219 52.163 512.957 54.189 515.228 C 56.215 517.497 58.285 516.82 58.155 520.345 C 58.025 523.868 58.936 528.337 62.376 529.044 C 65.815 529.751 69.425 529.303 70.98 532.092 C 72.535 534.884 79.706 532.995 81.91 532.733 C 84.116 532.467 87.401 526.26 89.961 526.249 C 92.523 526.234 95.264 523.689 95.108 522.09 C 94.951 520.491 93.959 520.542 93.91 519.549 C 93.859 518.557 91.148 516.947 90.114 516.609 C 89.079 516.273 86.347 514.311 86.347 514.311 Z " fill="rgb(211,34,41)"/><path d=" M 95.522 518.523 C 95.522 518.523 95.023 513.83 93.424 511.232 C 91.825 508.635 90.527 508.035 90.328 509.134 C 90.128 510.233 90.326 511.231 90.727 512.629 C 91.127 514.029 94.124 519.322 95.522 518.523 Z " fill="rgb(35,31,32)"/><path d=" M 123.49 499.246 C 123.49 499.246 122.79 500.844 124.289 503.241 C 125.787 505.639 127.886 508.835 128.184 508.636 C 128.483 508.435 128.085 506.038 127.386 504.341 C 126.686 502.642 125.288 500.345 123.49 499.246 Z " fill="rgb(35,31,32)"/><path d=" M 138.285 576 C 138.285 576 135.722 577.357 136.022 578.865 C 136.324 580.375 138.586 584.146 140.096 585.805 C 141.604 587.465 144.017 588.672 144.771 588.672 C 145.526 588.672 149.147 587.463 150.051 586.106 C 150.957 584.75 154.126 579.62 154.879 578.263 C 155.634 576.904 159.556 572.379 159.556 572.379 C 159.556 572.379 157.444 573.737 155.935 572.982 C 154.426 572.228 152.917 573.436 152.465 574.491 C 152.013 575.547 150.051 577.81 148.392 577.055 C 146.733 576.302 146.129 575.698 144.621 576.603 C 143.112 577.508 139.493 577.659 138.285 576 Z  M 83.057 481.855 C 83.057 481.855 83.965 476.261 87.141 472.933 C 90.317 469.605 107.105 453.423 138.716 460.984 C 138.716 460.984 152.175 463.103 159.587 476.865 C 159.587 476.865 164.881 488.359 165.032 490.326 C 165.032 490.326 166.09 490.175 167.754 488.812 C 169.417 487.452 172.593 485.336 175.013 487.755 C 177.434 490.175 178.034 493.954 178.338 498.339 C 178.641 502.725 178.49 510.288 176.978 516.791 C 175.465 523.294 174.104 526.168 173.348 527.529 C 172.591 528.891 171.079 530.402 171.079 530.402 C 171.079 530.402 180.758 537.209 183.027 538.42 C 185.295 539.629 192.1 541.143 195.276 547.494 C 198.451 553.846 199.36 560.502 199.208 562.619 C 199.208 562.619 189.226 558.382 177.127 561.407 C 177.127 561.407 170.018 579.406 154.591 588.178 C 154.591 588.178 155.798 591.651 155.042 593.315 C 154.287 594.979 154.892 595.584 154.287 596.34 C 153.682 597.098 153.531 597.702 154.438 598.458 C 155.346 599.213 157.161 601.18 157.765 602.541 C 158.37 603.903 161.243 610.86 160.639 613.129 C 160.035 615.397 159.882 623.716 160.035 626.892 C 160.186 630.067 161.093 634 161.093 634 C 161.093 634 151.414 627.496 149.296 619.329 L 146.574 610.558 C 146.574 610.558 140.07 621.297 134.777 623.413 C 134.777 623.413 135.231 617.06 135.231 615.245 C 135.231 613.432 136.893 607.077 137.347 605.717 C 137.802 604.356 142.339 594.374 142.339 594.374 C 142.339 594.374 136.138 592.105 134.171 589.837 C 132.205 587.568 129.936 583.636 129.936 583.636 C 129.936 583.636 125.097 586.661 123.736 588.476 C 122.374 590.29 116.779 596.339 115.72 597.55 C 114.661 598.761 112.695 600.727 112.695 600.727 C 112.695 600.727 114.812 584.088 116.173 579.099 C 117.535 574.107 118.29 569.267 118.29 569.267 C 118.29 569.267 114.964 564.277 113.755 562.918 C 112.545 561.558 108.158 557.322 105.889 555.81 C 103.621 554.297 100.748 551.88 99.688 550.669 C 98.63 549.458 95.001 547.795 93.64 547.189 C 92.278 546.584 90.313 542.803 89.253 540.231 C 88.194 537.661 86.682 531.31 85.623 526.016 C 84.565 520.723 81.693 514.37 81.239 508.473 C 80.785 502.574 81.238 503.18 80.633 499.7 C 80.028 496.222 80.483 487.299 81.39 485.333 C 82.297 483.366 83.057 481.855 83.057 481.855 Z " fill="rgb(255,255,255)"/><path d=" M 95.065 540.195 C 95.065 540.195 94.287 544.382 95.649 545.842 C 97.012 547.303 97.499 548.568 98.959 548.471 C 100.42 548.375 100.03 547.693 101.686 548.375 C 103.341 549.056 104.023 548.669 105.386 549.154 C 106.75 549.64 109.77 552.465 110.255 553.341 C 110.742 554.217 118.921 564.248 123.498 564.344 C 128.076 564.442 132.262 563.274 132.555 557.627 C 132.846 551.977 131.971 544.187 132.75 540.877 C 133.528 537.566 134.6 535.619 134.6 535.619 C 134.6 535.619 139.468 536.883 139.857 533.866 C 140.247 530.847 138.203 528.899 136.255 527.147 C 134.307 525.394 128.854 524.42 127.88 525.394 C 126.906 526.369 127.005 527.828 127.783 529.484 C 128.562 531.139 129.732 532.114 129.536 532.796 C 129.34 533.476 124.958 541.851 119.506 544.48 C 114.054 547.109 110.938 548.765 105.874 546.817 C 100.809 544.87 100.225 545.063 99.348 543.506 C 98.473 541.949 97.305 539.513 95.065 540.195 Z " fill="rgb(211,34,41)"/><path d=" M 114.93 555.095 C 114.93 555.095 118.239 558.6 120.383 559.477 C 122.526 560.353 126.421 559.769 128.173 555.387 C 129.926 551.005 129.537 544.576 130.121 542.63 C 130.705 540.683 129.927 540.196 128.076 541.365 C 126.225 542.532 123.11 545.065 121.454 545.942 C 119.798 546.818 120.188 547.403 117.364 548.571 C 114.54 549.739 111.228 550.324 111.327 550.712 C 111.425 551.102 114.346 554.51 114.93 555.095 Z " fill="rgb(255,255,255)"/><path d=" M 164.105 485.617 C 164.105 485.617 159.431 474.954 155.488 469.842 C 151.544 464.729 142.196 457.573 120.724 457.28 C 120.724 457.28 111.084 457.573 104.949 459.325 C 98.815 461.078 98.084 461.808 97.062 462.246 C 96.039 462.685 92.095 464.436 91.658 465.168 C 91.219 465.898 91.511 466.19 89.32 467.504 C 87.129 468.819 84.646 471.887 83.916 473.055 C 83.186 474.223 82.456 476.852 82.163 477.437 C 81.871 478.021 81.725 479.773 81.141 480.65 C 80.556 481.527 79.096 484.886 78.95 485.763 C 78.804 486.639 79.242 488.538 79.242 489.414 C 79.242 490.291 78.804 493.65 78.804 494.965 C 78.804 496.279 78.95 499.055 79.826 499.2 C 80.702 499.346 80.411 496.279 80.118 494.819 C 79.826 493.358 80.265 491.02 80.702 489.998 C 81.141 488.975 82.163 486.493 82.601 485.908 C 83.04 485.324 85.084 484.156 85.084 484.156 C 85.084 484.156 81.579 485.763 81.141 486.493 C 80.702 487.223 80.118 489.122 80.118 489.122 C 80.118 489.122 80.265 485.763 80.995 484.886 C 81.725 484.01 81.579 483.134 82.31 482.258 C 83.04 481.381 84.208 479.19 84.792 478.751 C 85.376 478.313 86.691 477.875 87.421 477.291 C 88.152 476.706 89.174 476.268 89.759 475.976 C 90.343 475.683 91.365 475.1 91.365 475.1 C 91.365 475.1 89.32 475.392 88.006 476.123 C 86.691 476.852 86.107 477.437 85.376 477.583 C 84.646 477.728 83.624 478.605 83.624 478.605 C 83.624 478.605 83.77 476.706 84.355 475.976 C 84.938 475.246 86.837 472.179 88.298 470.864 C 89.759 469.549 90.635 467.797 93.849 466.19 C 97.062 464.583 98.961 462.976 104.219 461.223 C 109.477 459.471 121.163 456.551 131.387 458.596 C 141.612 460.64 148.038 463.707 150.083 465.752 C 152.128 467.797 156.51 471.594 158.701 476.268 C 160.892 480.942 163.959 489.268 163.959 489.268 C 163.959 489.268 165.566 488.538 164.105 485.617 Z " fill="rgb(35,31,32)"/><path d=" M 122.087 474.224 C 122.087 474.224 128.952 472.471 134.064 475.684 C 139.176 478.898 142.975 483.718 142.975 483.718 C 142.975 483.718 136.109 478.606 133.189 476.999 C 130.267 475.393 127.199 474.808 125.739 474.808 C 124.278 474.808 122.087 474.224 122.087 474.224 Z " fill="rgb(35,31,32)"/><path d=" M 138.301 491.897 C 138.301 491.897 134.503 482.987 129.39 480.942 C 124.278 478.897 120.042 479.043 118.728 479.335 C 117.413 479.627 116.245 480.066 116.245 480.066 C 116.245 480.066 125.884 480.795 128.514 482.111 C 131.144 483.425 136.109 487.807 138.301 491.897 Z " fill="rgb(35,31,32)"/><path d=" M 85.623 526.016 C 85.623 526.016 84.109 524.762 82.795 520.088 C 81.48 515.414 77.829 505.774 82.503 498.763 C 87.177 491.752 87.615 490.875 88.784 490.583 C 89.953 490.291 92.144 492.043 93.02 493.797 C 93.896 495.549 97.401 503.729 98.278 505.774 C 99.155 507.819 103.536 518.19 103.098 518.627 C 102.66 519.066 100.762 518.774 100.469 518.19 C 100.177 517.605 95.065 505.044 94.334 502.56 C 93.604 500.078 90.975 493.504 90.391 494.088 C 89.806 494.673 85.279 498.471 83.525 504.751 C 81.773 511.032 82.357 515.121 83.087 516.729 C 83.818 518.336 85.279 523.155 85.279 524.177 C 85.279 525.2 85.623 526.016 85.623 526.016 Z " fill="rgb(35,31,32)"/><path d=" M 105.143 487.224 C 105.143 487.224 109.817 499.932 109.964 501.977 C 110.109 504.022 113.469 516.145 115.222 516.145 C 116.974 516.145 116.829 514.537 115.514 510.594 C 114.199 506.65 107.772 490.145 109.087 489.853 C 110.401 489.561 119.457 490.875 121.941 491.898 C 124.424 492.92 130.996 498.617 132.895 502.853 C 134.794 507.089 138.153 513.807 138.153 513.807 C 138.153 513.807 139.323 512.347 136.108 505.335 C 132.895 498.325 130.851 493.797 125.446 489.853 C 120.041 485.909 110.548 482.404 105.143 487.224 Z " fill="rgb(35,31,32)"/><path d=" M 141.368 508.841 C 141.368 508.841 142.682 509.425 142.974 510.01 C 143.266 510.594 143.266 512.201 143.997 512.347 C 144.727 512.492 147.21 514.246 148.524 513.807 C 149.839 513.369 151.154 512.492 150.423 512.201 C 149.693 511.908 144.727 511.179 144.288 510.886 C 143.85 510.594 144.581 509.279 145.165 508.841 C 145.749 508.403 149.985 508.257 150.862 508.112 C 151.738 507.965 152.468 508.403 152.468 508.403 C 152.468 508.403 149.401 507.089 148.087 507.235 C 146.772 507.38 143.85 508.403 143.85 508.403 C 143.85 508.403 146.188 504.605 146.918 504.167 C 147.648 503.729 149.985 502.122 149.985 502.122 C 149.985 502.122 146.333 504.022 144.435 506.067 C 142.536 508.112 141.368 508.841 141.368 508.841 Z " fill="rgb(35,31,32)"/><path d=" M 89.629 517.524 L 90.029 518.824 C 90.029 518.824 89.23 519.223 88.929 518.923 C 88.629 518.624 88.33 518.824 88.33 518.824 L 88.53 519.523 L 87.432 520.021 C 87.432 520.021 88.729 521.021 89.428 521.021 L 91.626 521.021 C 91.626 521.021 91.725 521.92 92.025 522.319 C 92.325 522.718 92.925 523.318 92.925 523.318 C 92.925 523.318 91.626 521.12 92.325 520.92 C 93.025 520.721 92.925 521.52 93.324 521.82 C 93.724 522.121 94.223 522.919 94.822 522.919 C 95.421 522.919 93.625 524.018 93.225 524.018 C 92.825 524.018 91.825 524.316 91.825 524.316 C 91.825 524.316 94.024 524.216 94.622 523.917 C 95.222 523.618 96.022 522.818 96.421 522.818 C 96.82 522.818 98.218 522.218 98.718 521.82 C 99.218 521.42 99.618 521.12 99.618 521.12 C 99.618 521.12 97.919 522.119 97.619 521.52 C 97.319 520.92 97.719 519.421 97.219 519.023 C 96.72 518.624 98.419 518.523 98.518 517.724 C 98.618 516.925 97.52 516.726 97.219 516.327 C 96.92 515.926 96.321 515.327 96.321 515.327 L 96.72 516.327 L 95.822 515.426 L 96.222 517.024 L 95.222 516.127 C 95.222 516.127 95.921 517.824 95.522 517.924 C 95.122 518.024 93.825 518.123 93.225 518.523 C 92.624 518.923 91.827 519.322 91.527 519.023 C 91.227 518.723 90.527 517.324 90.527 517.324 L 90.827 518.624 L 89.629 517.524 Z " fill="rgb(35,31,32)"/><path d=" M 90.527 510.633 C 90.527 510.633 89.529 514.529 93.625 519.723 L 95.022 519.124 C 95.022 519.124 94.923 516.028 93.424 513.529 C 91.926 511.032 91.326 510.732 90.527 510.633 Z " fill="rgb(211,34,41)"/><path d=" M 123.389 501.344 C 123.389 501.344 123.989 507.935 126.386 510.234 C 126.386 510.234 128.183 510.532 128.084 510.033 C 127.985 509.535 127.286 507.139 126.287 505.04 C 125.287 502.942 123.389 501.344 123.389 501.344 Z " fill="rgb(211,34,41)"/><path d=" M 124.288 509.335 C 123.898 509.204 121.79 509.533 121.691 509.833 C 121.592 510.134 122.189 511.431 121.891 511.931 C 121.592 512.431 121.092 513.13 121.092 513.13 L 122.391 512.431 L 121.592 513.829 C 121.592 513.829 122.889 513.031 123.189 512.931 C 123.489 512.83 123.488 512.032 123.988 511.832 C 124.488 511.632 126.086 510.935 125.886 511.433 C 125.687 511.931 125.086 513.829 125.486 514.328 C 125.886 514.828 126.187 515.427 125.886 515.627 C 125.586 515.827 124.388 516.127 124.388 516.127 C 124.388 516.127 126.484 515.727 126.785 515.727 C 127.085 515.727 126.185 516.227 126.185 516.227 L 127.684 515.827 L 126.885 516.626 L 128.383 515.927 L 128.083 516.626 C 128.083 516.626 128.882 516.227 129.182 516.027 C 129.482 515.827 131.679 514.827 131.779 514.528 C 131.879 514.23 132.378 513.23 132.378 513.23 C 132.378 513.23 131.28 514.029 131.28 513.529 C 131.28 513.03 131.579 512.332 131.479 511.832 C 131.379 511.332 131.979 511.032 131.979 511.032 C 131.979 511.032 132.977 510.234 133.177 509.934 C 133.377 509.634 133.977 508.336 133.977 508.336 L 134.177 507.236 C 134.177 507.236 133.476 508.635 133.177 508.735 C 132.878 508.835 133.177 507.236 132.977 506.638 C 132.977 506.638 132.677 507.936 132.378 507.936 C 132.079 507.936 131.878 507.638 131.679 507.138 C 131.479 506.638 131.08 505.939 131.08 505.939 C 131.08 505.939 131.68 507.436 131.379 507.735 C 131.08 508.036 130.382 505.639 130.382 505.639 C 130.382 505.639 130.981 508.035 130.581 508.336 C 130.181 508.636 129.882 507.037 129.882 507.037 C 129.882 507.037 129.782 508.336 129.482 508.636 C 129.182 508.935 128.582 509.536 128.283 509.335 C 127.984 509.135 124.588 509.435 124.288 509.335 Z " fill="rgb(35,31,32)"/><path d=" M 127.785 512.032 C 127.954 511.52 126.685 511.232 126.785 511.832 C 126.886 512.43 127.184 513.429 127.285 513.729 C 127.385 514.029 128.082 515.027 128.483 514.727 C 128.884 514.429 129.082 514.229 128.483 513.729 C 127.884 513.229 127.585 512.63 127.785 512.032 Z " fill="rgb(255,255,255)"/><path d=" M 135.671 518.481 C 135.671 518.481 138.884 520.087 139.907 520.818 C 140.929 521.548 142.828 522.863 142.828 522.863 C 142.828 522.863 144.435 520.087 145.019 518.773 C 145.603 517.459 145.895 515.851 145.895 515.851 C 145.895 515.851 143.266 516.874 142.39 516.874 C 141.513 516.874 139.907 517.02 139.323 517.02 C 138.738 517.02 135.525 517.166 135.671 518.481 Z " fill="rgb(211,34,41)"/><path d=" M 87.731 531.615 C 87.21 531.615 87.21 534.447 87.325 536.412 C 87.441 538.378 88.365 539.36 88.655 540.054 C 88.945 540.748 89.695 541.152 89.695 541.152 C 89.695 541.152 88.54 540.112 89.349 537.743 C 90.158 535.372 91.374 534.331 91.084 533.869 C 90.794 533.407 88.193 531.615 87.731 531.615 Z " fill="rgb(211,34,41)"/><path d=" M 117.948 548.181 C 117.656 548.181 117.656 547.79 116.487 548.181 C 115.319 548.571 114.736 548.863 113.761 548.863 C 112.787 548.863 111.326 549.058 110.645 548.863 C 109.964 548.667 107.528 548.765 106.847 548.472 C 106.166 548.181 104.121 547.403 103.634 547.207 C 103.147 547.012 100.615 545.551 100.128 545.162 C 99.641 544.773 98.375 542.047 97.499 542.436 C 96.623 542.826 97.109 543.701 97.012 544.382 C 96.914 545.065 97.012 545.551 96.914 546.136 C 96.818 546.72 97.888 548.279 98.764 547.987 C 99.641 547.694 100.615 547.208 101.004 547.403 C 101.393 547.596 103.732 547.888 104.413 548.181 C 105.094 548.472 107.141 549.448 108.211 549.739 C 109.281 550.032 111.326 550.908 112.202 552.077 C 113.079 553.244 116.681 556.361 119.214 556.944 C 121.746 557.529 125.739 555.972 126.615 552.077 C 127.491 548.181 128.758 542.825 129.244 542.046 C 129.73 541.268 129.634 542.825 130.121 542.63 C 130.607 542.436 131.678 538.15 131.678 537.371 C 131.678 536.594 132.067 534.841 132.36 534.841 C 132.652 534.841 134.211 535.231 134.502 534.841 C 134.795 534.451 135.281 533.379 135.281 532.893 C 135.281 532.406 133.236 530.361 132.652 529.971 C 132.652 529.971 130.51 528.706 129.926 529.68 C 129.341 530.653 130.508 532.504 130.607 532.796 C 130.705 533.088 131.387 533.575 130.996 534.158 C 130.607 534.743 130.607 534.841 130.218 535.815 C 129.828 536.787 130.121 536.981 129.244 537.664 C 128.367 538.346 128.074 539.223 127.685 539.612 C 127.296 540.001 126.226 541.657 125.739 542.241 C 125.252 542.826 123.694 544.189 122.914 544.577 C 122.135 544.967 121.961 546.047 120.541 546.641" fill="rgb(35,31,32)"/><path d=" M 106.924 518.885 C 106.924 518.885 96.905 522.416 95.624 528.007 C 94.34 533.599 98.094 539.356 101.515 540.512 C 104.936 541.67 110.198 543.72 116.613 539.525 C 123.028 535.329 125.932 530.218 123.519 524.203 C 121.103 518.19 113.523 516.358 106.924 518.885 Z " fill="rgb(211,34,41)"/><path d=" M 106.439 527.165 C 106.439 527.165 104.268 525.992 102.139 527.202 C 100.007 528.408 99.975 531.827 102.244 532.07 C 104.516 532.312 108.973 530.199 106.439 527.165 Z " fill="rgb(255,255,255)"/><path d=" M 165.299 490.636 C 165.299 490.636 163.284 493.075 163.496 493.925 C 163.709 494.774 165.087 495.304 165.511 494.242 C 165.935 493.182 167.208 491.272 167.633 490.423 C 168.057 489.575 169.435 488.939 170.073 488.514 C 170.709 488.09 172.299 487.24 173.149 487.453 C 173.998 487.665 175.483 488.409 175.588 489.363 C 175.695 490.318 176.33 491.591 175.376 491.697 C 174.423 491.803 173.891 491.486 172.512 492.44 C 171.134 493.394 167.209 496.26 166.361 497.425 C 165.511 498.591 163.602 500.925 163.178 501.562 C 162.753 502.199 161.586 504.214 161.586 504.214 C 161.586 504.214 163.71 504.426 164.133 504.32 C 164.556 504.214 163.921 505.274 163.814 506.123 C 163.709 506.973 163.178 508.138 163.178 508.138 C 163.178 508.138 161.164 507.608 161.375 508.563 C 161.586 509.518 162.01 509.942 162.01 510.79 C 162.01 511.639 161.692 513.548 162.329 513.548 C 162.966 513.548 164.238 511.746 164.45 512.488 C 164.662 513.23 166.254 514.715 165.723 516.2 C 165.193 517.686 164.662 517.578 164.556 518.534 C 164.45 519.49 163.921 520.974 163.921 521.504 C 163.921 522.035 164.343 523.414 164.874 522.99 C 165.405 522.565 166.783 520.125 167.102 519.383 C 167.421 518.64 167.738 518.216 168.057 517.367 C 168.375 516.519 168.694 515.883 168.799 514.715 C 168.906 513.548 168.905 513.336 169.435 513.019 C 169.966 512.7 170.497 512.807 169.966 512.17 C 169.435 511.532 169.011 511.851 169.542 511.215 C 170.073 510.579 169.966 510.366 169.648 510.261 C 169.331 510.155 168.801 510.684 169.118 509.093 C 169.435 507.502 170.071 506.229 169.648 506.442 C 169.225 506.654 168.694 506.865 168.375 506.865 C 168.057 506.865 167.314 507.292 166.89 507.822 C 166.466 508.351 166.254 508.775 165.723 508.563 C 165.193 508.351 164.343 508.352 164.343 507.502 C 164.343 506.654 164.981 503.684 165.83 502.517 C 166.678 501.35 167.421 500.288 167.738 500.925 C 168.057 501.562 170.923 503.683 171.452 504.002 C 171.982 504.32 172.512 503.154 172.406 502.41 C 172.299 501.668 170.497 499.44 170.285 498.804 C 170.073 498.167 168.906 498.274 170.709 496.895 C 172.512 495.516 173.679 496.365 173.998 496.788 C 174.317 497.213 176.331 499.44 176.438 500.5 C 176.544 501.562 176.756 504.002 176.65 504.851 C 176.544 505.699 176.226 507.608 176.544 508.881 C 176.862 510.155 177.391 511.639 177.391 511.639 C 177.391 511.639 178.452 506.548 178.24 502.199 C 178.028 497.849 178.029 492.757 176.65 490.105 C 175.27 487.453 174.209 486.605 172.724 486.605 C 171.239 486.605 169.209 487.79 168.482 488.302 C 167.754 488.813 166.042 490.318 165.299 490.636 Z " fill="rgb(211,34,41)"/><path d=" M 173.574 492.757 C 173.574 492.757 171.452 494.029 168.27 497.742 C 165.087 501.455 162.117 504.532 162.86 504.744 C 163.603 504.957 165.831 501.88 166.467 501.138 C 167.103 500.395 169.436 502.516 169.967 503.259 C 170.498 504.002 173.468 505.593 172.938 504.002 C 172.407 502.41 169.754 501.032 169.436 500.184 C 169.119 499.334 169.118 498.168 170.391 497.32 C 171.664 496.47 172.62 495.41 173.998 496.788 C 175.377 498.167 177.074 500.714 177.18 502.41 C 177.286 504.109 177.286 506.335 177.286 506.335 C 177.286 506.335 178.452 502.729 177.711 500.395 C 176.969 498.061 175.166 495.514 174.317 495.196 C 174.317 495.196 175.589 493.605 175.059 492.862 C 174.528 492.121 173.574 492.757 173.574 492.757 Z " fill="rgb(35,31,32)"/><path d=" M 163.259 509.817 C 163.259 509.817 162.639 508.949 162.205 509.322 C 161.772 509.693 161.957 510.377 162.453 510.747 C 162.949 511.118 163.756 511.057 163.88 511.739 C 164.003 512.421 164.003 512.67 164.313 512.855 C 164.624 513.041 164.994 513.847 165.118 514.466 C 165.243 515.086 165.678 515.707 165.801 516.512 C 165.924 517.318 166.358 518.682 166.297 519.177 C 166.235 519.673 166.172 520.727 165.924 521.286 C 165.676 521.843 165.304 523.516 165.304 523.516 C 165.304 523.516 165.678 522.525 166.359 521.534 C 167.041 520.542 167.846 518.061 167.598 516.946 C 167.351 515.83 166.855 514.094 166.483 513.289 C 166.111 512.483 165.365 510.81 164.994 510.562 C 164.624 510.313 163.568 510.004 163.259 509.817 Z " fill="rgb(35,31,32)"/><path d=" M 160.475 532.875 C 160.201 536.34 158.195 546.915 157.648 548.464 C 157.102 550.014 154.639 555.575 152.634 558.036 C 150.629 560.497 145.433 563.596 145.16 564.052 C 144.886 564.509 144.431 565.236 143.702 565.602 C 142.973 565.967 141.514 566.786 141.149 567.242 C 140.784 567.699 139.417 568.885 139.234 568.428 C 139.052 567.972 139.235 567.516 139.69 566.423 C 140.146 565.329 140.693 564.601 140.42 564.601 C 140.146 564.601 138.961 564.963 138.596 565.602 C 138.231 566.24 138.049 566.604 137.593 566.604 C 137.138 566.604 135.587 566.606 135.223 567.062 C 134.859 567.517 133.491 568.792 132.945 568.884 C 132.397 568.976 130.847 569.614 131.759 570.252 C 132.67 570.89 133.947 571.163 134.677 571.163 C 135.406 571.163 137.869 571.438 138.871 571.71 C 139.872 571.983 140.601 572.166 141.514 572.622 C 142.424 573.076 143.062 573.351 144.977 572.986 C 146.892 572.622 147.987 571.893 149.171 570.798 C 150.356 569.704 152.178 566.604 152.726 565.967 C 153.273 565.329 155.187 562.502 155.187 562.502 C 155.187 562.502 150.629 570.159 146.345 571.437 C 142.06 572.713 142.607 572.258 141.97 571.71 C 141.331 571.163 139.415 571.072 139.872 570.707 C 140.329 570.342 140.601 570.344 141.422 570.16 C 142.243 569.979 143.155 570.525 144.431 569.249 C 145.706 567.972 146.253 567.424 146.618 567.242 C 146.984 567.062 147.713 565.694 148.167 565.42 C 148.623 565.146 150.629 563.414 151.267 562.502 C 151.905 561.591 154.366 557.308 155.37 555.575 C 156.372 553.843 158.47 548.646 159.017 547.279 C 159.563 545.911 160.02 544.817 160.566 544.727 C 161.113 544.635 161.752 544.271 162.116 544.453 C 162.48 544.635 162.663 542.993 163.392 539.257 C 164.121 535.52 164.941 533.422 164.941 532.875 C 164.941 532.329 165.488 531.964 165.853 531.964 C 166.218 531.964 169.226 531.689 170.046 530.231 C 170.868 528.773 170.868 527.589 170.046 528.135 C 169.226 528.682 168.861 529.14 167.495 529.32 C 166.127 529.502 165.762 529.868 165.033 529.047 C 164.303 528.226 161.933 526.038 161.477 526.586 C 161.022 527.132 160.747 527.86 160.747 528.591 C 160.747 529.32 160.475 532.875 160.475 532.875 Z " fill="rgb(35,31,32)"/><path d=" M 142.78 545.65 C 142.78 545.65 140.832 545.261 140.93 546.429 C 141.027 547.598 141.709 551.006 140.832 553.732 C 139.957 556.459 138.982 560.061 138.982 560.061 C 138.982 560.061 141.32 558.308 141.709 556.752 C 142.098 555.193 144.24 546.624 142.78 545.65 Z " fill="rgb(35,31,32)"/><path d=" M 115.514 564.25 C 115.514 564.25 118.241 569.313 120.285 570.092 C 122.33 570.87 124.376 571.163 125.933 571.065 C 127.492 570.968 128.952 570.578 129.536 569.897 C 130.121 569.216 130.802 568.047 131.386 567.755 C 131.971 567.463 133.139 566.295 133.139 566.295 C 133.139 566.295 128.758 568.34 126.518 568.631 C 124.278 568.924 123.987 568.826 123.013 568.631 C 122.038 568.437 120.577 567.853 119.409 566.976 C 118.241 566.1 116.001 564.736 115.514 564.25 Z " fill="rgb(35,31,32)"/><path d=" M 98.863 549.059 C 98.863 549.059 101.007 551.494 101.687 551.786 C 102.369 552.078 103.732 553.05 104.316 553.538 C 104.901 554.026 105.582 554.511 106.166 555.095 C 106.75 555.68 108.308 555.583 107.627 554.902 C 106.946 554.219 104.803 553.247 104.316 552.857 C 103.83 552.466 101.98 551.2 101.2 550.421 C 100.421 549.644 98.181 548.084 98.181 548.084 L 98.863 549.059 Z " fill="rgb(35,31,32)"/><path d=" M 119.499 570.808 C 119.499 570.808 117.456 585.107 117.456 585.901 C 117.456 585.901 125.742 577.049 128.919 575.687 C 132.096 574.326 136.864 572.055 137.204 572.509 C 137.543 572.964 138.793 575.913 138.112 576.708 C 137.431 577.504 135.522 577.96 136.022 578.866 C 136.523 579.774 140.269 585.903 141.063 586.697 C 141.857 587.492 143.146 588.719 144.771 588.672 C 146.396 588.625 149.233 586.924 149.688 586.697 C 150.142 586.47 151.843 587.036 153.433 585.901 C 155.022 584.767 170.457 568.198 172.273 564.906 C 174.089 561.616 175.45 559.685 175.791 559.685 C 176.132 559.685 174.428 567.405 166.371 576.256 C 158.313 585.108 154.114 587.376 154.114 587.376 C 154.114 587.376 155.477 590.215 154.795 592.258 C 154.114 594.3 153.092 596.57 152.411 597.251 C 151.731 597.932 155.137 598.956 156.158 601.453 C 157.179 603.95 160.016 610.986 160.016 610.986 C 160.016 610.986 158.653 619.497 158.995 623.129 C 159.335 626.762 160.016 632.208 160.016 632.208 C 160.016 632.208 157.179 626.194 157.179 620.406 C 157.179 614.618 157.746 610.532 156.725 606.787 C 155.704 603.041 153.887 599.977 153.093 599.069 C 152.299 598.161 151.731 597.593 151.731 597.593 C 151.731 597.593 150.597 598.388 151.391 599.296 C 152.186 600.204 156.044 606.332 154.909 609.964 C 153.774 613.597 152.413 615.752 152.413 615.752 C 152.413 615.752 152.753 611.553 151.391 608.489 C 150.029 605.425 148.555 602.587 148.213 601.792 C 147.872 600.999 147.531 600.319 146.851 599.977 C 146.17 599.636 144.808 598.729 144.808 598.729 C 144.808 598.729 143.105 603.496 142.766 604.744 C 142.426 605.993 140.268 610.759 140.155 611.213 C 140.041 611.666 138.906 613.37 138.906 613.37 C 138.906 613.37 136.977 607.581 138.679 603.95 C 140.381 600.318 142.879 597.481 142.879 597.481 C 142.879 597.481 142.426 594.757 142.539 593.054 C 142.652 591.352 142.766 590.557 142.766 590.557 C 142.766 590.557 138.225 588.061 137.204 585.564 C 136.183 583.068 135.048 579.435 134.594 579.889 C 134.14 580.343 126.421 584.655 124.266 587.153 C 122.11 589.65 113.711 598.956 113.711 598.956 C 113.711 598.956 114.392 588.741 115.981 581.932 C 117.569 575.122 118.818 569.561 118.818 569.561 L 119.499 570.808 Z " fill="rgb(35,31,32)"/><path d=" M 190.153 542.728 C 190.153 542.728 195.996 553.682 194.974 557.042 C 194.974 557.042 172.48 552.368 160.21 560.109 C 160.21 560.109 154.806 563.469 154.222 564.93 L 156.704 563.762 L 155.244 567.413 C 155.244 567.413 158.019 564.785 160.356 564.199 C 162.693 563.616 162.986 564.638 162.839 566.245 C 162.693 567.852 162.693 568.435 161.817 570.48 C 160.941 572.525 157.435 576.323 158.019 576.177 C 158.603 576.031 166.052 570.188 167.075 567.997 C 168.097 565.807 169.705 561.717 169.705 561.717 C 169.705 561.717 175.84 560.402 179.491 559.672 C 183.142 558.941 191.029 559.526 193.804 560.255 C 196.58 560.986 198.625 561.424 198.625 561.424 C 198.625 561.424 197.457 547.84 190.153 542.728 Z " fill="rgb(35,31,32)"/><path d=" M 99.606 539.592 C 99.606 539.592 110.25 544.91 116.613 539.525 C 122.976 534.139 124.533 530.244 124.533 530.244 C 124.533 530.244 117.134 538.814 112.849 539.203 C 108.564 539.592 99.606 539.592 99.606 539.592 Z " fill="rgb(35,31,32)"/><path d=" M 165.217 489.86 C 165.217 489.86 166.051 489.785 167.568 488.496 C 169.084 487.206 171.588 486.219 172.726 486.296 C 173.863 486.372 175.379 487.433 176.137 488.496 C 176.897 489.557 178.033 492.212 178.261 495.017 C 178.489 497.824 178.641 501.692 178.641 501.692 C 178.641 501.692 178.565 507.077 178.565 508.138 C 178.565 509.2 177.457 515.491 177.31 516.659 C 177.164 517.828 176.434 519.435 177.164 520.019 C 177.894 520.603 180.524 522.503 181.839 520.019 C 183.154 517.536 183.884 516.659 185.344 516.805 C 186.805 516.952 191.187 517.536 192.063 513.884 C 192.94 510.233 192.356 508.48 194.401 507.458 C 196.445 506.435 198.928 506.728 197.759 503.221 C 196.591 499.716 196.445 498.401 198.489 497.379 C 200.534 496.356 203.796 494.021 202.822 490.904 C 201.849 487.788 198.928 486.62 200.097 484.477 C 201.265 482.335 204.577 480.971 200.681 476.492 C 196.784 472.012 195.422 472.208 197.175 469.287 C 198.928 466.365 198.539 462.08 193.67 460.522 C 188.801 458.964 188.411 462.47 185.879 460.132 C 183.347 457.796 178.089 455.458 175.167 457.99 C 172.246 460.522 172.83 460.522 168.74 459.353 C 164.651 458.185 161.536 455.849 159.588 458.185 C 157.639 460.522 158.614 462.47 155.109 462.859 C 151.603 463.249 147.317 464.806 147.123 468.312 C 146.929 471.818 147.902 475.323 145.371 477.27 C 142.839 479.218 145.76 486.035 146.345 488.177 C 146.929 490.319 153.551 492.657 153.94 495.188 C 154.329 497.719 157.249 500.057 158.808 499.668 C 160.367 499.278 160.171 498.304 161.145 498.109 C 162.12 497.915 163.315 494.997 163.496 493.924 C 163.677 492.851 165.217 489.86 165.217 489.86 Z " fill="rgb(211,34,41)"/></g><g style="mix-blend-mode:linear_burn;opacity:0.09;"><path d=" M 92.32 97.385 C 92.32 99.54 90.572 101.288 88.417 101.288 C 86.261 101.288 84.514 99.54 84.514 97.385 C 84.514 95.229 86.261 93.482 88.417 93.482 C 90.572 93.482 92.32 95.229 92.32 97.385 Z " fill-rule="evenodd" fill="rgb(241,90,36)"/><path d=" M 82.806 82.903 C 82.806 85.058 81.058 86.806 78.903 86.806 C 76.747 86.806 75 85.058 75 82.903 C 75 80.747 76.747 79 78.903 79 C 81.058 79 82.806 80.747 82.806 82.903 Z " fill-rule="evenodd" fill="rgb(241,90,36)"/><path d=" M 73.806 98.097 C 73.806 100.252 72.059 102 69.903 102 C 67.747 102 66 100.252 66 98.097 C 66 95.941 67.747 94.194 69.903 94.194 C 72.059 94.194 73.806 95.941 73.806 98.097 Z " fill-rule="evenodd" fill="rgb(241,90,36)"/></g><g style="mix-blend-mode:linear_burn;opacity:0.09;"><path d=" M 160.107 232.799 C 158.648 234.385 156.179 234.489 154.592 233.03 C 153.005 231.571 152.902 229.102 154.36 227.515 C 155.82 225.928 158.288 225.825 159.875 227.284 C 161.462 228.742 161.566 231.211 160.107 232.799 Z " fill-rule="evenodd" fill="rgb(241,90,36)"/><path d=" M 162.905 215.698 C 161.446 217.285 158.976 217.389 157.39 215.93 C 155.803 214.471 155.7 212.002 157.158 210.415 C 158.617 208.828 161.086 208.724 162.673 210.184 C 164.259 211.642 164.364 214.111 162.905 215.698 Z " fill-rule="evenodd" fill="rgb(241,90,36)"/><path d=" M 145.996 220.793 C 144.537 222.379 142.068 222.483 140.481 221.024 C 138.894 219.565 138.791 217.096 140.249 215.509 C 141.709 213.922 144.177 213.819 145.764 215.278 C 147.351 216.737 147.455 219.205 145.996 220.793 Z " fill-rule="evenodd" fill="rgb(241,90,36)"/></g><g style="mix-blend-mode:linear_burn;opacity:0.09;"><path d=" M 194.305 135.601 C 195.688 137.254 195.469 139.716 193.816 141.099 C 192.162 142.482 189.701 142.262 188.318 140.609 C 186.934 138.956 187.154 136.495 188.807 135.111 C 190.46 133.729 192.922 133.947 194.305 135.601 Z " fill-rule="evenodd" fill="rgb(241,90,36)"/><path d=" M 177.716 130.597 C 179.099 132.25 178.879 134.712 177.226 136.095 C 175.573 137.478 173.111 137.259 171.729 135.606 C 170.345 133.952 170.564 131.491 172.218 130.108 C 173.871 128.725 176.332 128.943 177.716 130.597 Z " fill-rule="evenodd" fill="rgb(241,90,36)"/><path d=" M 180.562 148.026 C 181.944 149.679 181.726 152.14 180.072 153.524 C 178.419 154.907 175.957 154.687 174.574 153.034 C 173.191 151.381 173.41 148.92 175.064 147.536 C 176.717 146.153 179.178 146.372 180.562 148.026 Z " fill-rule="evenodd" fill="rgb(241,90,36)"/></g><g style="mix-blend-mode:linear_burn;opacity:0.09;"><path d=" M 65.989 426.202 C 66.061 424.049 67.867 422.36 70.021 422.433 C 72.176 422.506 73.863 424.311 73.79 426.465 C 73.718 428.62 71.913 430.307 69.758 430.235 C 67.604 430.162 65.916 428.357 65.989 426.202 Z " fill-rule="evenodd" fill="rgb(241,90,36)"/><path d=" M 75.009 440.997 C 75.082 438.843 76.888 437.155 79.042 437.227 C 81.196 437.3 82.883 439.106 82.811 441.259 C 82.738 443.414 80.933 445.101 78.779 445.029 C 76.625 444.956 74.937 443.151 75.009 440.997 Z " fill-rule="evenodd" fill="rgb(241,90,36)"/><path d=" M 84.516 426.114 C 84.588 423.961 86.393 422.272 88.548 422.345 C 90.703 422.418 92.39 424.223 92.317 426.377 C 92.245 428.532 90.44 430.219 88.285 430.147 C 86.13 430.074 84.443 428.269 84.516 426.114 Z " fill-rule="evenodd" fill="rgb(241,90,36)"/></g><g style="mix-blend-mode:linear_burn;opacity:0.09;"><path d=" M 289.471 545.223 C 287.439 544.505 286.373 542.274 287.091 540.242 C 287.81 538.21 290.04 537.145 292.072 537.863 C 294.105 538.581 295.17 540.811 294.451 542.843 C 293.733 544.875 291.504 545.941 289.471 545.223 Z " fill-rule="evenodd" fill="rgb(241,90,36)"/><path d=" M 306.295 541.078 C 304.263 540.36 303.198 538.13 303.916 536.098 C 304.634 534.065 306.864 533 308.896 533.719 C 310.929 534.437 311.994 536.666 311.276 538.699 C 310.558 540.731 308.328 541.797 306.295 541.078 Z " fill-rule="evenodd" fill="rgb(241,90,36)"/><path d=" M 294.968 527.53 C 292.937 526.812 291.871 524.582 292.589 522.55 C 293.307 520.517 295.538 519.452 297.57 520.17 C 299.602 520.888 300.667 523.118 299.949 525.151 C 299.231 527.183 297.001 528.248 294.968 527.53 Z " fill-rule="evenodd" fill="rgb(241,90,36)"/></g><g style="mix-blend-mode:linear_burn;opacity:0.09;"><path d=" M 345.192 581.116 C 347.283 581.635 348.559 583.753 348.039 585.844 C 347.52 587.937 345.403 589.211 343.311 588.692 C 341.219 588.173 339.944 586.056 340.463 583.964 C 340.982 581.872 343.099 580.597 345.192 581.116 Z " fill-rule="evenodd" fill="rgb(241,90,36)"/><path d=" M 328.844 586.861 C 330.936 587.38 332.211 589.498 331.692 591.589 C 331.173 593.682 329.055 594.956 326.964 594.437 C 324.871 593.918 323.597 591.801 324.116 589.709 C 324.635 587.617 326.752 586.342 328.844 586.861 Z " fill-rule="evenodd" fill="rgb(241,90,36)"/><path d=" M 341.423 599.256 C 343.514 599.775 344.79 601.892 344.271 603.984 C 343.751 606.077 341.634 607.351 339.542 606.832 C 337.45 606.313 336.175 604.196 336.695 602.104 C 337.214 600.011 339.33 598.737 341.423 599.256 Z " fill-rule="evenodd" fill="rgb(241,90,36)"/></g><g style="mix-blend-mode:linear_burn;opacity:0.09;"><path d=" M 401.101 465.533 C 400.726 467.655 398.7 469.072 396.578 468.697 C 394.455 468.321 393.039 466.295 393.415 464.173 C 393.791 462.05 395.815 460.634 397.938 461.01 C 400.06 461.386 401.477 463.41 401.101 465.533 Z " fill-rule="evenodd" fill="rgb(241,90,36)"/><path d=" M 394.257 449.615 C 393.882 451.737 391.856 453.154 389.734 452.778 C 387.611 452.402 386.195 450.377 386.571 448.255 C 386.946 446.132 388.971 444.716 391.094 445.092 C 393.216 445.467 394.633 447.492 394.257 449.615 Z " fill-rule="evenodd" fill="rgb(241,90,36)"/><path d=" M 382.747 463.008 C 382.371 465.13 380.346 466.547 378.223 466.171 C 376.1 465.795 374.685 463.77 375.06 461.648 C 375.436 459.525 377.461 458.109 379.584 458.485 C 381.707 458.86 383.123 460.885 382.747 463.008 Z " fill-rule="evenodd" fill="rgb(241,90,36)"/></g></g></svg>