<?xml version="1.0" ?><svg viewBox="2768 929 120 120" xmlns="http://www.w3.org/2000/svg"><defs><style>
      .cls-1 {
        fill: #bf2519;
      }

      .cls-2 {
        fill: #fff;
      }
    </style></defs><g data-name="Group 58" id="Group_58" transform="translate(2620 623)"><circle class="cls-1" cx="60" cy="60" data-name="Ellipse 46" id="Ellipse_46" r="60" transform="translate(148 306)"/><g data-name="Group 57" id="Group_57" transform="translate(1.532 2.311)"><path class="cls-2" d="M2271.9,342.985l.382,20.927a3.344,3.344,0,0,1-.382,1.433,2.532,2.532,0,0,1-1.051.86s-3.44.382-9.078-1.529a27.44,27.44,0,0,1-8.6-4.491,2.7,2.7,0,0,1-.669-1.529,3.164,3.164,0,0,1,.669-1.624l13.282-15.671s1.983-1.171,3.344-.764S2271.9,342.985,2271.9,342.985Z" data-name="Path 152" id="Path_152" transform="translate(-2065.802 40.208)"/><path class="cls-2" d="M19.4,2.475,19.78,23.4a3.344,3.344,0,0,1-.382,1.433,2.532,2.532,0,0,1-1.051.86s-3.44.382-9.078-1.529a27.44,27.44,0,0,1-8.6-4.491A2.7,2.7,0,0,1,0,18.146a3.164,3.164,0,0,1,.669-1.624L13.951.85S15.934-.32,17.3.086,19.4,2.475,19.4,2.475Z" data-name="Path 153" id="Path_153" transform="translate(209.919 395.231) rotate(-74)"/><path class="cls-2" d="M19.4,2.475,19.78,23.4a3.344,3.344,0,0,1-.382,1.433,2.532,2.532,0,0,1-1.051.86s-3.44.382-9.078-1.529a27.44,27.44,0,0,1-8.6-4.491A2.7,2.7,0,0,1,0,18.146a3.164,3.164,0,0,1,.669-1.624L13.951.85S15.934-.32,17.3.086,19.4,2.475,19.4,2.475Z" data-name="Path 154" id="Path_154" transform="translate(227.818 377.324) rotate(-143)"/><path class="cls-2" d="M19.4,2.475,19.78,23.4a3.344,3.344,0,0,1-.382,1.433,2.532,2.532,0,0,1-1.051.86s-3.44.382-9.078-1.529a27.44,27.44,0,0,1-8.6-4.491A2.7,2.7,0,0,1,0,18.146a3.164,3.164,0,0,1,.669-1.624L13.951.85S15.934-.32,17.3.086,19.4,2.475,19.4,2.475Z" data-name="Path 155" id="Path_155" transform="matrix(0.292, 0.956, -0.956, 0.292, 194.07, 355.526)"/><path class="cls-2" d="M2246.1,285.344c.1-1.051-.1-3.344,10.8-6.116s12.422-.956,12.422-.956.717-.454,1.433,8.7,1.433,27.9,1.433,27.9-.1,2.58-1.911,3.44-3.917-1.242-3.917-1.242S2246,286.4,2246.1,285.344Z" data-name="Path 156" id="Path_156" transform="translate(-2065.517 43)"/></g></g></svg>